<svg width="44" height="44" viewBox="0 0 44 44" fill="none" xmlns="http://www.w3.org/2000/svg">
<path d="M7.09034 41.6196H18.918C19.0444 41.6198 19.1683 41.5846 19.2756 41.5178C19.3829 41.451 19.4693 41.3555 19.5249 41.242L21.9997 36.1778H37.1922C37.371 36.1778 37.5426 36.1067 37.669 35.9803C37.7955 35.8538 37.8665 35.6823 37.8665 35.5034C37.8665 35.3246 37.7955 35.1531 37.669 35.0266C37.5426 34.9002 37.371 34.8291 37.1922 34.8291H35.6278V21.2819C36.1489 21.0494 36.5915 20.6709 36.9021 20.1923C37.2127 19.7136 37.378 19.1552 37.378 18.5846C37.378 18.0139 37.2127 17.4555 36.9021 16.9769C36.5915 16.4982 36.1489 16.1197 35.6278 15.8873V13.0618C35.6278 12.883 35.5567 12.7115 35.4303 12.585C35.3038 12.4585 35.1323 12.3875 34.9534 12.3875C34.7746 12.3875 34.6031 12.4585 34.4766 12.585C34.3502 12.7115 34.2791 12.883 34.2791 13.0618V15.6108H29.2891C29.1575 15.6128 29.0291 15.57 28.925 15.4894L25.5129 12.8663C25.5932 12.5785 25.6363 12.2816 25.641 11.9829C25.641 11.902 25.641 11.8211 25.641 11.7401C26.1039 11.3088 26.4732 10.7869 26.7261 10.207C26.979 9.62697 27.11 9.00122 27.111 8.3685V7.78184H28.7766C28.9555 7.78184 29.127 7.71079 29.2534 7.58433C29.3799 7.45787 29.451 7.28636 29.451 7.10751C29.451 6.92867 29.3799 6.75715 29.2534 6.63069C29.127 6.50423 28.9555 6.43318 28.7766 6.43318H27.0504C26.9899 5.22703 26.4635 4.09145 25.5821 3.26583C24.7008 2.4402 23.5333 1.98901 22.3258 2.00738C21.1182 2.02574 19.965 2.51221 19.1092 3.36426C18.2533 4.2163 17.7617 5.36735 17.7379 6.57479V8.48314H13.692C12.9557 8.47931 12.2369 8.70689 11.637 9.13372C11.0371 9.56056 10.5864 10.1651 10.3487 10.8619C10.1109 11.5587 10.0981 12.3126 10.312 13.0171C10.526 13.7216 10.9558 14.3411 11.5409 14.7881C11.0196 15.3908 10.6456 16.1064 10.4485 16.8785L9.15377 22.118C9.0084 22.7053 8.99866 23.318 9.12529 23.9097C9.25191 24.5013 9.51158 25.0563 9.8846 25.5327C10.2576 26.009 10.7342 26.3942 11.2782 26.659C11.8222 26.9237 12.4194 27.0612 13.0244 27.0609H13.0918L8.89753 40.2709H7.09034C6.9115 40.2709 6.73998 40.342 6.61352 40.4684C6.48706 40.5949 6.41602 40.7664 6.41602 40.9453C6.41602 41.1241 6.48706 41.2956 6.61352 41.4221C6.73998 41.5485 6.9115 41.6196 7.09034 41.6196ZM23.0584 34.8291H21.5816C21.4552 34.8289 21.3313 34.8641 21.224 34.9309C21.1167 34.9977 21.0303 35.0933 20.9747 35.2067L18.4999 40.2709H17.7582L16.1668 38.0119L19.5384 31.0124C19.6274 30.8385 19.7626 30.6924 19.9291 30.5901C20.0956 30.4878 20.287 30.4333 20.4824 30.4325L23.9417 30.4797L23.0584 34.8291ZM34.4477 20.176H33.8475V16.9594H34.4477C34.6677 16.9452 34.8882 16.9762 35.0957 17.0506C35.3032 17.125 35.4932 17.2411 35.654 17.3918C35.8149 17.5426 35.943 17.7247 36.0307 17.927C36.1183 18.1292 36.1635 18.3473 36.1635 18.5677C36.1635 18.7881 36.1183 19.0062 36.0307 19.2085C35.943 19.4107 35.8149 19.5928 35.654 19.7436C35.4932 19.8943 35.3032 20.0105 35.0957 20.0848C34.8882 20.1592 34.6677 20.1902 34.4477 20.176ZM34.2791 21.5246V34.8291H31.3188L29.4105 32.2195L30.8535 28.0252C30.9408 27.7732 30.9774 27.5064 30.9612 27.2403C30.945 26.9741 30.8763 26.7137 30.7591 26.4742C30.6426 26.2209 30.4763 25.9936 30.2701 25.8059C30.0639 25.6182 29.822 25.474 29.5588 25.3818L25.196 23.878L25.9107 20.4053L26.7604 20.9245C27.4351 21.3412 28.2129 21.5608 29.0059 21.5584H34.2791V21.5246ZM28.1023 16.5616C28.4446 16.8189 28.8609 16.9585 29.2891 16.9594H32.4989V20.176H29.0059C28.46 20.1725 27.9257 20.0185 27.4617 19.7309L25.7961 18.7194C25.7027 18.6623 25.5968 18.6287 25.4876 18.6217C25.3783 18.6146 25.269 18.6343 25.169 18.679C25.0695 18.7225 24.982 18.7893 24.914 18.8738C24.8459 18.9583 24.7992 19.0581 24.7779 19.1645L23.8675 23.6488H21.4669L22.7414 17.9709C22.9295 17.1381 22.8492 16.2671 22.5121 15.4827C22.9734 15.4257 23.4187 15.277 23.8217 15.0454C24.2247 14.8137 24.5773 14.5039 24.8588 14.134L28.1023 16.5616ZM15.398 14.3363H18.7696C19.182 14.3255 19.5913 14.4093 19.9661 14.5814C20.3409 14.7535 20.6713 15.0093 20.9318 15.3291C21.1923 15.6488 21.376 16.0241 21.4688 16.426C21.5615 16.8278 21.5609 17.2456 21.4669 17.6473L20.624 21.3898H10.6777L11.723 17.182C11.924 16.3622 12.3967 15.6347 13.064 15.118C13.7314 14.6012 14.5541 14.3257 15.398 14.3363ZM22.3975 3.23687C23.2504 3.23964 24.0694 3.57144 24.6837 4.16313C25.298 4.75482 25.6602 5.56075 25.695 6.41296H19.1001C19.1348 5.56075 19.4971 4.75482 20.1114 4.16313C20.7257 3.57144 21.5446 3.23964 22.3975 3.23687ZM19.0866 8.34827V7.76161H25.7084V8.34827C25.709 9.0174 25.5068 9.67098 25.1285 10.2229C24.8203 9.69029 24.378 9.24762 23.8456 8.93886C23.3133 8.63011 22.7095 8.46602 22.0941 8.46291H19.0933C19.0933 8.42245 19.0866 8.38873 19.0866 8.34827ZM13.692 9.81157H22.0941C22.6699 9.81157 23.2222 10.0403 23.6294 10.4475C24.0366 10.8547 24.2654 11.407 24.2654 11.9829C24.2654 12.5588 24.0366 13.1111 23.6294 13.5183C23.2222 13.9255 22.6699 14.1542 22.0941 14.1542H21.6558C21.2755 13.7788 20.8247 13.4825 20.3294 13.2823C19.834 13.082 19.3039 12.9819 18.7696 12.9876H15.398C14.3928 12.9903 13.4112 13.2932 12.5793 13.8575C12.1662 13.6161 11.8444 13.245 11.664 12.8019C11.4835 12.3588 11.4544 11.8684 11.5813 11.4071C11.7081 10.9457 11.9838 10.5392 12.3655 10.2507C12.7472 9.96217 13.2135 9.8078 13.692 9.81157ZM10.934 24.6468C10.5184 24.0952 10.3345 23.4033 10.4215 22.7182H20.3071L20.1722 23.3049C20.0269 23.9774 19.6548 24.5797 19.1183 25.0106C18.5818 25.4415 17.9135 25.6749 17.2254 25.6717H12.9907C12.5895 25.6703 12.1936 25.5793 11.832 25.4055C11.4703 25.2317 11.152 24.9794 10.9003 24.667L10.934 24.6468ZM14.5079 27.0204H17.2592C17.9971 27.0244 18.7239 26.8408 19.3714 26.487C20.0189 26.1331 20.566 25.6206 20.9612 24.9974H24.3328L29.1475 26.6563C29.2385 26.6868 29.3225 26.7354 29.3943 26.7992C29.4661 26.8629 29.5244 26.9404 29.5656 27.0271C29.611 27.1126 29.6376 27.2068 29.6434 27.3033C29.6492 27.3999 29.6342 27.4966 29.5993 27.5868L28.0416 32.1183C28.007 32.2207 27.9976 32.3299 28.014 32.4367C28.0304 32.5434 28.0723 32.6447 28.136 32.732L29.6667 34.8291H24.434L25.4455 29.9605C25.4669 29.8609 25.4655 29.7577 25.4413 29.6588C25.4171 29.5598 25.3709 29.4676 25.306 29.3891C25.2411 29.3106 25.1593 29.2478 25.0666 29.2054C24.974 29.1631 24.873 29.1423 24.7711 29.1445L20.4959 29.0838C20.0434 29.084 19.5999 29.2103 19.2151 29.4485C18.8304 29.6867 18.5197 30.0275 18.3178 30.4325L14.7776 37.7827C14.7264 37.8899 14.7045 38.0087 14.7139 38.1271C14.7234 38.2455 14.764 38.3593 14.8316 38.457L16.1061 40.2642H10.3136L14.5079 27.0204Z" fill="black"/>
</svg>
