<svg width="33" height="40" viewBox="0 0 33 40" fill="none" xmlns="http://www.w3.org/2000/svg">
<path d="M1.2671 39.7729H13.0948C13.2211 39.7732 13.345 39.7379 13.4524 39.6711C13.5597 39.6044 13.646 39.5088 13.7016 39.3953L16.1764 34.3311H31.369C31.5478 34.3311 31.7193 34.26 31.8458 34.1336C31.9722 34.0071 32.0433 33.8356 32.0433 33.6568C32.0433 33.4779 31.9722 33.3064 31.8458 33.1799C31.7193 33.0535 31.5478 32.9824 31.369 32.9824H29.8045V19.4352C30.3256 19.2027 30.7682 18.8243 31.0788 18.3456C31.3895 17.8669 31.5547 17.3085 31.5547 16.7379C31.5547 16.1673 31.3895 15.6089 31.0788 15.1302C30.7682 14.6515 30.3256 14.2731 29.8045 14.0406V11.2151C29.8045 11.0363 29.7335 10.8648 29.607 10.7383C29.4806 10.6119 29.309 10.5408 29.1302 10.5408C28.9514 10.5408 28.7798 10.6119 28.6534 10.7383C28.5269 10.8648 28.4559 11.0363 28.4559 11.2151V13.7641H23.4659C23.3342 13.7661 23.2058 13.7233 23.1017 13.6427L19.6897 11.0196C19.77 10.7318 19.813 10.4349 19.8178 10.1362C19.8178 10.0553 19.8178 9.97438 19.8178 9.89346C20.2807 9.46211 20.65 8.94026 20.9029 8.36028C21.1557 7.78029 21.2868 7.15454 21.2878 6.52182V5.93516H22.9534C23.1322 5.93516 23.3037 5.86411 23.4302 5.73765C23.5567 5.61119 23.6277 5.43968 23.6277 5.26083C23.6277 5.08199 23.5567 4.91047 23.4302 4.78401C23.3037 4.65755 23.1322 4.5865 22.9534 4.5865H21.2271C21.1667 3.38035 20.6403 2.24477 19.7589 1.41915C18.8775 0.593518 17.71 0.142333 16.5025 0.160696C15.295 0.179058 14.1418 0.665532 13.2859 1.51758C12.4301 2.36962 11.9384 3.52067 11.9147 4.72811V6.63646H7.86874C7.13249 6.63263 6.41364 6.86021 5.81373 7.28704C5.21381 7.71388 4.76316 8.31841 4.52542 9.01523C4.28768 9.71206 4.27487 10.466 4.4888 11.1705C4.70273 11.875 5.13258 12.4945 5.71764 12.9414C5.19634 13.5441 4.82236 14.2598 4.62524 15.0318L3.33053 20.2714C3.18516 20.8587 3.17542 21.4714 3.30205 22.063C3.42867 22.6546 3.68834 23.2096 4.06136 23.686C4.43438 24.1623 4.91096 24.5475 5.45497 24.8123C5.99898 25.0771 6.59613 25.2145 7.20116 25.2142H7.26859L3.07429 38.4243H1.2671C1.08826 38.4243 0.916739 38.4953 0.790278 38.6218C0.663818 38.7482 0.592773 38.9197 0.592773 39.0986C0.592773 39.2774 0.663818 39.4489 0.790278 39.5754C0.916739 39.7019 1.08826 39.7729 1.2671 39.7729ZM17.2351 32.9824H15.7583C15.632 32.9822 15.508 33.0175 15.4007 33.0842C15.2934 33.151 15.2071 33.2466 15.1514 33.3601L12.6767 38.4243H11.9349L10.3435 36.1653L13.7151 29.1657C13.8042 28.9918 13.9393 28.8457 14.1059 28.7434C14.2724 28.6411 14.4638 28.5866 14.6592 28.5858L18.1185 28.633L17.2351 32.9824ZM28.6245 18.3293H28.0243V15.1128H28.6245C28.8444 15.0985 29.065 15.1295 29.2724 15.2039C29.4799 15.2783 29.67 15.3944 29.8308 15.5452C29.9916 15.6959 30.1198 15.878 30.2074 16.0803C30.2951 16.2825 30.3403 16.5006 30.3403 16.721C30.3403 16.9415 30.2951 17.1595 30.2074 17.3618C30.1198 17.564 29.9916 17.7462 29.8308 17.8969C29.67 18.0476 29.4799 18.1638 29.2724 18.2382C29.065 18.3125 28.8444 18.3436 28.6245 18.3293ZM28.4559 19.678V32.9824H25.4956L23.5872 30.3728L25.0303 26.1785C25.1176 25.9265 25.1541 25.6597 25.1379 25.3936C25.1217 25.1274 25.0531 24.8671 24.9359 24.6275C24.8194 24.3742 24.6531 24.1469 24.4469 23.9592C24.2407 23.7715 23.9988 23.6273 23.7356 23.5351L19.3727 22.0314L20.0875 18.5586L20.9372 19.0778C21.6118 19.4945 22.3897 19.7141 23.1827 19.7117H28.4559V19.678ZM22.2791 14.7149C22.6213 14.9722 23.0377 15.1118 23.4659 15.1128H26.6757V18.3293H23.1827C22.6368 18.3258 22.1024 18.1718 21.6385 17.8842L19.9729 16.8728C19.8795 16.8156 19.7736 16.7821 19.6643 16.775C19.555 16.768 19.4457 16.7876 19.3457 16.8323C19.2463 16.8758 19.1588 16.9426 19.0907 17.0271C19.0226 17.1117 18.9759 17.2114 18.9546 17.3178L18.0443 21.8021H15.6437L16.9182 16.1242C17.1062 15.2914 17.026 14.4204 16.6889 13.636C17.1502 13.579 17.5955 13.4303 17.9985 13.1987C18.4015 12.9671 18.7541 12.6572 19.0356 12.2873L22.2791 14.7149ZM9.57478 12.4896H12.9464C13.3587 12.4788 13.768 12.5626 14.1428 12.7347C14.5177 12.9068 14.848 13.1626 15.1085 13.4824C15.3691 13.8021 15.5528 14.1774 15.6455 14.5793C15.7383 14.9812 15.7377 15.399 15.6437 15.8006L14.8008 19.5431H4.85451L5.89971 15.3353C6.10075 14.5156 6.57345 13.788 7.2408 13.2713C7.90815 12.7546 8.73082 12.479 9.57478 12.4896ZM16.5743 1.39019C17.4272 1.39296 18.2461 1.72476 18.8604 2.31645C19.4747 2.90814 19.837 3.71407 19.8717 4.56628H13.2768C13.3116 3.71407 13.6738 2.90814 14.2881 2.31645C14.9024 1.72476 15.7214 1.39296 16.5743 1.39019ZM13.2633 6.5016V5.91493H19.8852V6.5016C19.8858 7.17072 19.6836 7.8243 19.3053 8.37623C18.997 7.84361 18.5547 7.40094 18.0224 7.09219C17.4901 6.78343 16.8862 6.61934 16.2708 6.61623H13.2701C13.2701 6.57577 13.2633 6.54205 13.2633 6.5016ZM7.86874 7.96489H16.2708C16.8467 7.96489 17.399 8.19365 17.8062 8.60085C18.2134 9.00806 18.4422 9.56035 18.4422 10.1362C18.4422 10.7121 18.2134 11.2644 17.8062 11.6716C17.399 12.0788 16.8467 12.3076 16.2708 12.3076H15.8325C15.4523 11.9322 15.0015 11.6358 14.5061 11.4356C14.0108 11.2354 13.4807 11.1352 12.9464 11.141H9.57478C8.56953 11.1436 7.58799 11.4465 6.7561 12.0109C6.343 11.7694 6.0212 11.3983 5.84071 10.9552C5.66023 10.5121 5.63116 10.0218 5.75803 9.56041C5.8849 9.09906 6.1606 8.69254 6.54229 8.40402C6.92398 8.11549 7.39028 7.96112 7.86874 7.96489ZM5.11075 22.8001C4.69517 22.2486 4.51129 21.5566 4.59826 20.8715H14.4839L14.349 21.4582C14.2037 22.1308 13.8316 22.733 13.2951 23.1639C12.7586 23.5948 12.0903 23.8282 11.4022 23.8251H7.16744C6.76621 23.8236 6.37036 23.7327 6.00873 23.5589C5.6471 23.385 5.3288 23.1327 5.07703 22.8203L5.11075 22.8001ZM8.68467 25.1737H11.4359C12.1738 25.1777 12.9006 24.9941 13.5482 24.6403C14.1957 24.2864 14.7427 23.7739 15.138 23.1507H18.5096L23.3243 24.8096C23.4153 24.8402 23.4992 24.8888 23.5711 24.9525C23.6429 25.0162 23.7011 25.0937 23.7423 25.1805C23.7878 25.2659 23.8143 25.3601 23.8201 25.4566C23.826 25.5532 23.8109 25.6499 23.7761 25.7402L22.2184 30.2716C22.1838 30.374 22.1743 30.4832 22.1908 30.59C22.2072 30.6968 22.249 30.798 22.3128 30.8853L23.8435 32.9824H18.6107L19.6222 28.1138C19.6436 28.0142 19.6422 27.9111 19.6181 27.8121C19.5939 27.7132 19.5476 27.621 19.4828 27.5424C19.4179 27.4639 19.336 27.4011 19.2434 27.3588C19.1508 27.3164 19.0497 27.2956 18.9479 27.2979L14.6727 27.2372C14.2202 27.2373 13.7766 27.3636 13.3919 27.6018C13.0071 27.84 12.6964 28.1808 12.4946 28.5858L8.9544 35.936C8.9032 36.0432 8.88122 36.162 8.8907 36.2804C8.90017 36.3988 8.94076 36.5126 9.00835 36.6103L10.2828 38.4175H4.49037L8.68467 25.1737Z" fill="white"/>
</svg>
