<svg width="40" height="39" viewBox="0 0 40 39" fill="none" xmlns="http://www.w3.org/2000/svg">
<path d="M39.137 27.5637C38.6451 23.1436 34.4937 19.0083 30.0698 18.5368C29.6941 18.4954 29.3164 18.474 28.9384 18.4727H21.8827V15.907H20.5998V14.6241C20.5998 13.2071 19.4511 12.0584 18.0341 12.0584H14.827C14.1184 12.0584 13.5441 11.4841 13.5441 10.7756C13.5441 10.067 14.1184 9.4927 14.827 9.4927H25.0898C26.5068 9.4927 27.6555 8.34398 27.6555 6.92698C27.6555 5.50999 26.5068 4.36127 25.0898 4.36127H21.8827C21.1741 4.36127 20.5998 3.78695 20.5998 3.07841V0.512695H19.317V3.07841C19.317 4.49541 20.4657 5.64413 21.8827 5.64413H25.0898C25.7983 5.64413 26.3726 6.21845 26.3726 6.92698C26.3726 7.63552 25.7983 8.20984 25.0898 8.20984H14.827C13.41 8.20984 12.2613 9.35856 12.2613 10.7756C12.2613 12.1926 13.41 13.3413 14.827 13.3413H18.0341C18.7426 13.3413 19.317 13.9156 19.317 14.6241V15.907H18.0341V18.4727H10.9784C10.6 18.4736 10.2218 18.495 9.84566 18.5368C5.41982 19.0115 1.27107 23.1468 0.780379 27.5669C0.135986 33.1981 4.17858 38.2856 9.8099 38.93C12.103 39.1925 14.4176 38.6742 16.3799 37.4591C17.2247 36.906 18.1904 36.5648 19.1951 36.4642C19.6914 36.425 20.1899 36.4232 20.6864 36.4591C21.707 36.5578 22.6882 36.903 23.5459 37.4648C28.3674 40.4446 34.6916 38.9516 37.6714 34.13C38.8838 32.1681 39.4002 29.8549 39.137 27.5637ZM19.317 17.1898H20.5998V18.4727H19.317V17.1898ZM35.6316 34.7227C32.7317 37.9664 27.9227 38.6625 24.2219 36.3743C23.1885 35.7014 22.0063 35.2912 20.7781 35.1794C20.5074 35.1597 20.2342 35.1499 19.9584 35.1499C19.6665 35.1499 19.3811 35.162 19.0937 35.1845C17.8843 35.3003 16.7207 35.7065 15.7019 36.3686C11.4843 38.978 5.95003 37.6744 3.34055 33.4569C2.27827 31.7399 1.82558 29.7151 2.05553 27.7093C2.47759 23.9107 6.18119 20.2212 9.98356 19.8126C10.3139 19.7757 10.646 19.7567 10.9784 19.7556H28.9384C29.2707 19.7558 29.6028 19.7735 29.9332 19.8088C33.7349 20.2174 37.4379 23.9069 37.8612 27.7054C38.1637 30.2565 37.3511 32.814 35.6316 34.7227Z" fill="black"/>
</svg>
