<svg width="32" height="40" viewBox="0 0 32 40" fill="none" xmlns="http://www.w3.org/2000/svg">
<path d="M1.09034 39.6196H12.918C13.0444 39.6198 13.1683 39.5846 13.2756 39.5178C13.3829 39.451 13.4693 39.3555 13.5249 39.242L15.9997 34.1778H31.1922C31.371 34.1778 31.5426 34.1067 31.669 33.9803C31.7955 33.8538 31.8665 33.6823 31.8665 33.5034C31.8665 33.3246 31.7955 33.1531 31.669 33.0266C31.5426 32.9002 31.371 32.8291 31.1922 32.8291H29.6278V19.2819C30.1489 19.0494 30.5915 18.6709 30.9021 18.1923C31.2127 17.7136 31.378 17.1552 31.378 16.5846C31.378 16.0139 31.2127 15.4555 30.9021 14.9769C30.5915 14.4982 30.1489 14.1197 29.6278 13.8873V11.0618C29.6278 10.883 29.5567 10.7115 29.4303 10.585C29.3038 10.4585 29.1323 10.3875 28.9534 10.3875C28.7746 10.3875 28.6031 10.4585 28.4766 10.585C28.3502 10.7115 28.2791 10.883 28.2791 11.0618V13.6108H23.2891C23.1575 13.6128 23.0291 13.57 22.925 13.4894L19.5129 10.8663C19.5932 10.5785 19.6363 10.2816 19.641 9.9829C19.641 9.90198 19.641 9.82106 19.641 9.74014C20.1039 9.30879 20.4732 8.78694 20.7261 8.20695C20.979 7.62697 21.11 7.00122 21.111 6.3685V5.78184H22.7766C22.9555 5.78184 23.127 5.71079 23.2534 5.58433C23.3799 5.45787 23.451 5.28636 23.451 5.10751C23.451 4.92867 23.3799 4.75715 23.2534 4.63069C23.127 4.50423 22.9555 4.43318 22.7766 4.43318H21.0504C20.9899 3.22703 20.4635 2.09145 19.5821 1.26583C18.7008 0.440197 17.5333 -0.010987 16.3258 0.00737521C15.1182 0.0257374 13.965 0.512211 13.1092 1.36426C12.2533 2.2163 11.7617 3.36735 11.7379 4.57479V6.48314H7.69198C6.95573 6.47931 6.23688 6.70689 5.63697 7.13372C5.03706 7.56056 4.5864 8.16508 4.34867 8.86191C4.11093 9.55873 4.09811 10.3126 4.31204 11.0171C4.52597 11.7216 4.95582 12.3411 5.54088 12.7881C5.01959 13.3908 4.6456 14.1064 4.44848 14.8785L3.15377 20.118C3.0084 20.7053 2.99866 21.318 3.12529 21.9097C3.25191 22.5013 3.51158 23.0563 3.8846 23.5327C4.25762 24.009 4.7342 24.3942 5.27821 24.659C5.82222 24.9237 6.41938 25.0612 7.0244 25.0609H7.09183L2.89753 38.2709H1.09034C0.911498 38.2709 0.739981 38.342 0.61352 38.4684C0.48706 38.5949 0.416016 38.7664 0.416016 38.9453C0.416016 39.1241 0.48706 39.2956 0.61352 39.4221C0.739981 39.5485 0.911498 39.6196 1.09034 39.6196ZM17.0584 32.8291H15.5816C15.4552 32.8289 15.3313 32.8641 15.224 32.9309C15.1167 32.9977 15.0303 33.0933 14.9747 33.2067L12.4999 38.2709H11.7582L10.1668 36.0119L13.5384 29.0124C13.6274 28.8385 13.7626 28.6924 13.9291 28.5901C14.0956 28.4878 14.287 28.4333 14.4824 28.4325L17.9417 28.4797L17.0584 32.8291ZM28.4477 18.176H27.8475V14.9594H28.4477C28.6677 14.9452 28.8882 14.9762 29.0957 15.0506C29.3032 15.125 29.4932 15.2411 29.654 15.3918C29.8149 15.5426 29.943 15.7247 30.0307 15.927C30.1183 16.1292 30.1635 16.3473 30.1635 16.5677C30.1635 16.7881 30.1183 17.0062 30.0307 17.2085C29.943 17.4107 29.8149 17.5928 29.654 17.7436C29.4932 17.8943 29.3032 18.0105 29.0957 18.0848C28.8882 18.1592 28.6677 18.1902 28.4477 18.176ZM28.2791 19.5246V32.8291H25.3188L23.4105 30.2195L24.8535 26.0252C24.9408 25.7732 24.9774 25.5064 24.9612 25.2403C24.945 24.9741 24.8763 24.7137 24.7591 24.4742C24.6426 24.2209 24.4763 23.9936 24.2701 23.8059C24.0639 23.6182 23.822 23.474 23.5588 23.3818L19.196 21.878L19.9107 18.4053L20.7604 18.9245C21.4351 19.3412 22.2129 19.5608 23.0059 19.5584H28.2791V19.5246ZM22.1023 14.5616C22.4446 14.8189 22.8609 14.9585 23.2891 14.9594H26.4989V18.176H23.0059C22.46 18.1725 21.9257 18.0185 21.4617 17.7309L19.7961 16.7194C19.7027 16.6623 19.5968 16.6287 19.4876 16.6217C19.3783 16.6146 19.269 16.6343 19.169 16.679C19.0695 16.7225 18.982 16.7893 18.914 16.8738C18.8459 16.9583 18.7992 17.0581 18.7779 17.1645L17.8675 21.6488H15.4669L16.7414 15.9709C16.9295 15.1381 16.8492 14.2671 16.5121 13.4827C16.9734 13.4257 17.4187 13.277 17.8217 13.0454C18.2247 12.8137 18.5773 12.5039 18.8588 12.134L22.1023 14.5616ZM9.39802 12.3363H12.7696C13.182 12.3255 13.5913 12.4093 13.9661 12.5814C14.3409 12.7535 14.6713 13.0093 14.9318 13.3291C15.1923 13.6488 15.376 14.0241 15.4688 14.426C15.5615 14.8278 15.5609 15.2456 15.4669 15.6473L14.624 19.3898H4.67775L5.72295 15.182C5.92399 14.3622 6.39669 13.6347 7.06404 13.118C7.73139 12.6012 8.55406 12.3257 9.39802 12.3363ZM16.3975 1.23687C17.2504 1.23964 18.0694 1.57144 18.6837 2.16313C19.298 2.75482 19.6602 3.56075 19.695 4.41296H13.1001C13.1348 3.56075 13.4971 2.75482 14.1114 2.16313C14.7257 1.57144 15.5446 1.23964 16.3975 1.23687ZM13.0866 6.34827V5.76161H19.7084V6.34827C19.709 7.0174 19.5068 7.67098 19.1285 8.22291C18.8203 7.69029 18.378 7.24762 17.8456 6.93886C17.3133 6.63011 16.7095 6.46602 16.0941 6.46291H13.0933C13.0933 6.42245 13.0866 6.38873 13.0866 6.34827ZM7.69198 7.81157H16.0941C16.6699 7.81157 17.2222 8.04033 17.6294 8.44753C18.0366 8.85474 18.2654 9.40703 18.2654 9.9829C18.2654 10.5588 18.0366 11.1111 17.6294 11.5183C17.2222 11.9255 16.6699 12.1542 16.0941 12.1542H15.6558C15.2755 11.7788 14.8247 11.4825 14.3294 11.2823C13.834 11.082 13.3039 10.9819 12.7696 10.9876H9.39802C8.39277 10.9903 7.41123 11.2932 6.57934 11.8575C6.16624 11.6161 5.84444 11.245 5.66396 10.8019C5.48347 10.3588 5.4544 9.86843 5.58127 9.40709C5.70814 8.94574 5.98384 8.53922 6.36553 8.2507C6.74722 7.96217 7.21352 7.8078 7.69198 7.81157ZM4.93399 22.6468C4.51841 22.0952 4.33453 21.4033 4.4215 20.7182H14.3071L14.1722 21.3049C14.0269 21.9774 13.6548 22.5797 13.1183 23.0106C12.5818 23.4415 11.9135 23.6749 11.2254 23.6717H6.99068C6.58945 23.6703 6.1936 23.5793 5.83197 23.4055C5.47034 23.2317 5.15205 22.9794 4.90028 22.667L4.93399 22.6468ZM8.50791 25.0204H11.2592C11.9971 25.0244 12.7239 24.8408 13.3714 24.487C14.0189 24.1331 14.566 23.6206 14.9612 22.9974H18.3328L23.1475 24.6563C23.2385 24.6868 23.3225 24.7354 23.3943 24.7992C23.4661 24.8629 23.5244 24.9404 23.5656 25.0271C23.611 25.1126 23.6376 25.2068 23.6434 25.3033C23.6492 25.3999 23.6342 25.4966 23.5993 25.5868L22.0416 30.1183C22.007 30.2207 21.9976 30.3299 22.014 30.4367C22.0304 30.5434 22.0723 30.6447 22.136 30.732L23.6667 32.8291H18.434L19.4455 27.9605C19.4669 27.8609 19.4655 27.7577 19.4413 27.6588C19.4171 27.5598 19.3709 27.4676 19.306 27.3891C19.2411 27.3106 19.1593 27.2478 19.0666 27.2054C18.974 27.1631 18.873 27.1423 18.7711 27.1445L14.4959 27.0838C14.0434 27.084 13.5999 27.2103 13.2151 27.4485C12.8304 27.6867 12.5197 28.0275 12.3178 28.4325L8.77764 35.7827C8.72644 35.8899 8.70447 36.0087 8.71394 36.1271C8.72341 36.2455 8.764 36.3593 8.83159 36.457L10.1061 38.2642H4.31361L8.50791 25.0204Z" fill="black"/>
</svg>
