<svg width="44" height="38" viewBox="0 0 44 38" fill="none" xmlns="http://www.w3.org/2000/svg">
<path d="M43.7498 33.3883C43.5108 32.7131 43.0232 32.1713 42.3768 31.8628L38.9226 30.2142L39.0302 29.9428C39.1927 29.5334 39.0121 29.068 38.616 28.8752L32.7817 26.0356C32.3634 25.8319 31.8597 26.0061 31.6562 26.4242C31.4527 26.8424 31.6266 27.3462 32.0448 27.5497L37.1767 30.0476L35.5957 33.6797L19.2652 26.1124C19.1542 26.0611 19.0335 26.0343 18.9111 26.0343H10.8962C10.8159 26.0343 10.7385 26.0463 10.6649 26.0673L10.016 23.7635C9.88995 23.316 9.42525 23.0547 8.97725 23.1813C8.52967 23.3073 8.26896 23.7725 8.39506 24.22L9.78425 29.1517H5.45382L4.28564 21.1243C4.1866 20.444 4.38788 19.7555 4.83766 19.2355C5.28743 18.7156 5.93976 18.4173 6.62731 18.4173C6.99609 18.4173 7.36503 18.5052 7.69418 18.6715L13.5565 21.6328C13.5616 21.6354 13.5659 21.637 13.5707 21.6392C13.6822 21.6929 13.8062 21.7233 13.9362 21.7233L20.073 21.7226L34.768 28.8752C34.8867 28.933 35.0332 28.8796 35.1568 28.8796C35.6411 28.333 35.2845 29.252 35.4302 28.9525C35.6336 28.5344 36.2267 27.7123 35.8085 27.5088L21.5545 20.5709L23.4878 18.005H32.9449C33.4987 18.005 34.0395 17.8494 34.5051 17.5575L39.3768 14.5355C39.5753 14.4123 39.7118 14.2125 39.7573 13.9853C40.1439 13.8753 40.5086 13.669 40.8124 13.3653L41.4772 12.7004C42.4293 11.7483 42.4293 10.1991 41.4772 9.24705L40.3607 8.13045C39.4086 7.17847 37.8593 7.1783 36.9073 8.13045L36.2424 8.79534C35.9371 9.10072 35.7301 9.46773 35.6207 9.85656C35.5726 9.87081 35.5252 9.88901 35.4792 9.91219L30.9648 12.1964L23.3518 11.1315C23.9041 10.6035 24.316 9.94127 24.5461 9.19075L24.7424 8.55047C25.4738 6.16487 24.1278 3.62915 21.7423 2.89784C20.5867 2.54357 19.3621 2.66056 18.2946 3.22725C17.2269 3.79385 16.444 4.74238 16.0897 5.89792L15.8934 6.5382C15.5431 7.68084 15.6704 8.85746 16.1592 9.8542L9.72626 8.90121L11.5936 7.32505C11.7401 7.2014 11.8378 7.03223 11.875 6.84687C12.2314 6.73198 12.5666 6.53407 12.8491 6.25152L13.5139 5.58664C14.466 4.63457 14.466 3.08539 13.5139 2.13324L12.3973 1.01672C11.4453 0.0646547 9.8961 0.0648233 8.94396 1.01672L8.27907 1.68161C7.97436 1.98632 7.76768 2.35239 7.6581 2.74022C7.50486 2.76593 7.3571 2.83412 7.2337 2.94521L2.59249 7.12975C1.76695 7.87404 1.37508 8.97429 1.54417 10.0729C1.71334 11.1714 2.41793 12.1027 3.42908 12.5643L12.004 16.4789L12.6887 19.3078L8.45339 17.1685C7.88999 16.8839 7.25857 16.7334 6.62723 16.7334C5.45037 16.7334 4.33394 17.2439 3.56403 18.1338C2.79412 19.0239 2.44979 20.2023 2.61921 21.3668L3.89225 30.115C3.91695 30.2845 3.99163 30.4356 4.09927 30.5555C2.17483 31.0485 0.748047 32.7972 0.748047 34.8731C0.748047 35.338 1.12508 35.7151 1.59003 35.7151H13.4924C13.9574 35.7151 14.3344 35.338 14.3344 34.8731C14.3344 34.4081 13.9574 34.0311 13.4924 34.0311H10.7729C10.8125 33.8663 10.8341 33.6945 10.8341 33.5177V30.8358H10.8965C11.1602 30.8358 11.4086 30.7123 11.5678 30.5021C11.727 30.2919 11.7785 30.0193 11.7069 29.7655L11.1303 27.7184H18.7258L35.8144 35.6369C35.9265 35.6889 36.0473 35.715 36.1684 35.715C36.2742 35.715 36.3801 35.6951 36.4803 35.6551C36.6009 35.607 36.7065 35.5317 36.7917 35.4375L39.9511 36.9454C40.3226 37.1227 40.7152 37.2068 41.102 37.2068C42.1037 37.2068 43.0665 36.6434 43.5261 35.6806L43.6421 35.4378C43.9504 34.7914 43.9888 34.0636 43.7498 33.3883ZM37.4332 9.98628L38.098 9.3214C38.2457 9.17364 38.4398 9.0998 38.6338 9.0998C38.828 9.0998 39.0219 9.17364 39.1696 9.3214L40.2862 10.438C40.5817 10.7334 40.5817 11.2142 40.2862 11.5098L39.6213 12.1746C39.4783 12.3177 39.2879 12.3965 39.0855 12.3965C38.8831 12.3965 38.6928 12.3177 38.5498 12.1746L37.4332 11.058C37.1376 10.7625 37.1376 10.2817 37.4332 9.98628ZM30.9927 13.9009C31.1629 13.9249 31.3363 13.896 31.4895 13.8184L35.6874 11.6943L37.5984 13.6568L33.6134 16.1287C33.4128 16.2546 33.1815 16.3213 32.9445 16.3213H23.0677C22.8033 16.3213 22.5542 16.4454 22.3952 16.6566L20.5614 19.0905L19.5357 15.9892L21.7098 12.6026L30.9927 13.9009ZM18.8553 13.9319L18.1852 11.9058C18.4095 12.0186 18.6455 12.1151 18.8934 12.1911C19.21 12.2882 19.5318 12.3493 19.854 12.3761L18.8553 13.9319ZM17.5033 7.03197L17.6996 6.3917C17.9221 5.66612 18.4137 5.07069 19.084 4.7149C19.5002 4.49397 19.9543 4.38195 20.4124 4.38195C20.6921 4.38195 20.9735 4.42376 21.2486 4.50805C22.7463 4.96718 23.5913 6.55927 23.1322 8.05695L22.9359 8.69722C22.7135 9.4228 22.2219 10.0182 21.5515 10.374C20.8813 10.7298 20.1127 10.8034 19.3869 10.5808C17.8892 10.1219 17.0443 8.52982 17.5033 7.03197ZM9.46984 2.87281L10.1347 2.20792C10.2824 2.06016 10.4765 1.98632 10.6705 1.98632C10.8647 1.98632 11.0586 2.06016 11.2063 2.20792L12.3229 3.32444C12.6184 3.61988 12.6184 4.10067 12.3229 4.3962L11.658 5.06108C11.3627 5.35661 10.8817 5.35661 10.5864 5.06108L9.46976 3.94456C9.17432 3.64904 9.17432 3.16825 9.46984 2.87281ZM11.8462 12.2487C11.3942 12.3581 11.1165 12.8131 11.2259 13.2651L11.5002 14.3979L4.12835 11.0326C3.62758 10.8041 3.29244 10.3609 3.20866 9.81686C3.12487 9.27285 3.31141 8.74923 3.72022 8.38071L7.78075 4.71987L9.79141 6.6428L7.21482 8.81767C6.96186 9.0311 6.85751 9.37298 6.94796 9.69135C7.03848 10.0097 7.30712 10.2456 7.63442 10.294L16.3033 11.5783L19.1015 20.0388L14.5986 20.0392L12.8628 12.8688C12.7532 12.417 12.2986 12.1393 11.8462 12.2487ZM9.15005 33.5178C9.14996 33.8007 8.91976 34.0312 8.63663 34.0312H2.56265C2.91996 32.913 3.96896 32.1009 5.20424 32.1009C5.66918 32.1009 6.04621 31.7239 6.04621 31.2589C6.04621 31.1046 6.00399 30.9604 5.93141 30.836H9.14988L9.15005 33.5178ZM42.1222 34.7123L42.0063 34.9551C41.7693 35.4515 41.1728 35.6625 40.6764 35.4257L37.4632 33.8922L37.9703 32.6145L38.3546 31.8092L41.6515 33.3827C41.8919 33.4975 42.0734 33.6991 42.1622 33.9502C42.2511 34.2014 42.2369 34.472 42.1222 34.7123Z" fill="black"/>
</svg>
