<svg width="40" height="39" viewBox="0 0 40 39" fill="none" xmlns="http://www.w3.org/2000/svg">
<g clip-path="url(#clip0_1656_4570)">
<path d="M37.4418 8.92713H35.6362V7.42675C35.6362 6.23725 34.6685 5.26953 33.4791 5.26953H31.7583C30.5688 5.26953 29.6012 6.23725 29.6012 7.42675V13.6032H26.7175V11.9449C26.7175 10.7415 25.7385 9.76247 24.5351 9.76247C24.0622 9.76247 23.6245 9.91416 23.2669 10.1707C22.9153 9.43597 22.1646 8.92713 21.2971 8.92713C20.477 8.92713 19.7613 9.3818 19.3885 10.0523C19.0201 9.76826 18.5592 9.59839 18.059 9.59839C17.2999 9.59839 16.6308 9.98838 16.2397 10.5781C15.8579 10.2506 15.3623 10.0521 14.821 10.0521C13.6176 10.0521 12.6386 11.0311 12.6386 12.2346V13.6033H9.94495V12.0127C9.94495 11.7014 9.69267 11.4492 9.38149 11.4492C9.07032 11.4492 8.81804 11.7014 8.81804 12.0127V25.1024C8.81804 25.6705 8.35585 26.1326 7.78782 26.1326H6.06679C5.49868 26.1326 5.03657 25.6705 5.03657 25.1024V7.42675C5.03657 6.85863 5.49876 6.39645 6.06679 6.39645H7.78759C8.3557 6.39645 8.81781 6.85863 8.81781 7.42675V11.9441C8.81781 12.2554 9.07009 12.5076 9.38127 12.5076C9.69245 12.5076 9.94473 12.2554 9.94473 11.9441V7.42675C9.94473 6.23725 8.97701 5.26953 7.78759 5.26953H6.06679C4.8773 5.26953 3.90966 6.23725 3.90966 7.42675V8.92713H2.10412C1.23467 8.92713 0.527344 9.63445 0.527344 10.5038V22.0251C0.527344 22.8946 1.23467 23.6019 2.10412 23.6019H3.90966V25.1023C3.90966 26.2917 4.87738 27.2594 6.06679 27.2594H7.78759C8.97708 27.2594 9.94473 26.2917 9.94473 25.1023V18.9259H11.8757V19.9548C11.8757 20.4835 12.0606 20.9996 12.3966 21.4081L14.1465 23.5356V33.6784C14.1465 33.9896 14.3987 34.2418 14.7099 34.2418C15.0211 34.2418 15.2734 33.9896 15.2734 33.6784V23.3336C15.2734 23.2031 15.228 23.0765 15.1451 22.9756L13.2669 20.6921C13.0964 20.4849 13.0025 20.223 13.0025 19.9548V18.9259L23.6584 18.991C23.9696 18.991 24.2219 18.7388 24.2219 18.4276C24.2219 18.1163 23.9696 17.8641 23.6584 17.8641H21.0947C20.5658 17.8641 20.1355 17.4338 20.1355 16.9049C20.1355 16.376 20.5658 15.9457 21.0947 15.9457H25.9394C26.2723 15.9457 26.5432 16.2165 26.5432 16.5494V19.9547C26.5432 20.223 26.4493 20.4849 26.2788 20.6921L24.4006 22.9756C24.3177 23.0765 24.2723 23.2029 24.2723 23.3336V24.8197C24.2723 25.1309 24.5246 25.3831 24.8357 25.3831C25.1469 25.3831 25.3992 25.1309 25.3992 24.8197V23.5355L27.1491 21.408C27.485 20.9996 27.67 20.4834 27.67 19.9547V18.9258H29.6009V25.1022C29.6009 26.2916 30.5686 27.2594 31.7581 27.2594H33.4789C34.6684 27.2594 35.636 26.2916 35.636 25.1022V23.6018H37.4415C38.311 23.6018 39.0183 22.8945 39.0183 22.0251V10.5038C39.0185 9.63445 38.3112 8.92713 37.4418 8.92713ZM2.10412 22.475C1.85605 22.475 1.65426 22.2731 1.65426 22.0251V10.5038C1.65426 10.2558 1.85605 10.054 2.10412 10.054H3.90966V22.475H2.10412ZM24.535 10.8894C25.1171 10.8894 25.5906 11.3629 25.5906 11.9449V14.0427C25.5906 14.3402 25.4643 14.6202 25.2483 14.8189H23.8216C23.6056 14.6202 23.4794 14.3402 23.4794 14.0427V11.9449C23.4794 11.3629 23.9529 10.8894 24.535 10.8894ZM20.2414 11.1096C20.2414 10.5276 20.7149 10.054 21.2969 10.054C21.879 10.054 22.3525 10.5276 22.3525 11.1096V14.0427C22.3525 14.3402 22.2263 14.6202 22.0103 14.8189H21.0948C20.9393 14.8189 20.7878 14.8365 20.6419 14.869C20.3911 14.6709 20.2413 14.3695 20.2413 14.0427L20.2414 11.1096ZM17.0033 11.7808C17.0033 11.1988 17.4769 10.7252 18.0589 10.7252C18.6409 10.7252 19.1145 11.1988 19.1145 11.7808V14.0427C19.1145 14.6247 18.641 15.0983 18.0589 15.0983C17.4768 15.0983 17.0033 14.6247 17.0033 14.0427V11.7808ZM13.7653 12.2345C13.7653 11.6525 14.2388 11.1789 14.8208 11.1789C15.4028 11.1789 15.8763 11.6525 15.8763 12.2345V14.0427C15.8763 14.6248 15.4028 15.0983 14.8208 15.0983C14.2388 15.0983 13.7653 14.6248 13.7653 14.0427V12.2345ZM9.9448 14.7301H12.7499C13.0386 15.5976 13.8576 16.2252 14.8209 16.2252C15.4626 16.2252 16.0405 15.9466 16.4402 15.5043C16.8399 15.9465 17.4173 16.2252 18.0589 16.2252C18.5238 16.2252 18.954 16.0777 19.3083 15.829C19.1183 16.1434 19.0088 16.5116 19.0088 16.9049C19.0088 17.2247 19.0813 17.5278 19.2104 17.7989H9.9448V14.7301ZM27.6702 17.799V16.5494C27.6702 15.803 27.1951 15.1654 26.5314 14.9232C26.5592 14.8601 26.584 14.7957 26.6058 14.7301H29.6012V17.799H27.6702ZM37.8916 22.0251C37.8916 22.2732 37.6898 22.475 37.4418 22.475H35.6362V20.8467C35.6362 20.5354 35.3839 20.2832 35.0728 20.2832C34.7616 20.2832 34.5093 20.5354 34.5093 20.8467V25.1023C34.5093 25.6704 34.0471 26.1325 33.4791 26.1325H31.7583C31.1902 26.1325 30.7281 25.6704 30.7281 25.1023V7.42675C30.7281 6.85863 31.1903 6.39645 31.7583 6.39645H33.4791C34.0472 6.39645 34.5093 6.85863 34.5093 7.42675V20.7782C34.5093 21.0894 34.7616 21.3416 35.0728 21.3416C35.3839 21.3416 35.6362 21.0894 35.6362 20.7782V10.054H37.4418C37.6898 10.054 37.8916 10.2558 37.8916 10.5038V22.0251Z" fill="black"/>
<path d="M24.8369 23.1592C24.5257 23.1592 24.2734 23.4114 24.2734 23.7226V33.6792C24.2734 33.9904 24.5257 34.2426 24.8369 34.2426C25.1481 34.2426 25.4003 33.9904 25.4003 33.6792V23.7226C25.4003 23.4114 25.1481 23.1592 24.8369 23.1592Z" fill="black"/>
</g>
<defs>
<clipPath id="clip0_1656_4570">
<rect width="38.4912" height="38.4913" fill="white" transform="translate(0.527344 0.508789)"/>
</clipPath>
</defs>
</svg>
