<svg width="39" height="40" viewBox="0 0 39 40" fill="none" xmlns="http://www.w3.org/2000/svg">
<g clip-path="url(#clip0_1946_4594)">
<path d="M37.2572 9.08338H35.4517V7.583C35.4517 6.3935 34.4839 5.42578 33.2945 5.42578H31.5737C30.3842 5.42578 29.4166 6.3935 29.4166 7.583V13.7594H26.533V12.1012C26.533 10.8977 25.5539 9.91872 24.3505 9.91872C23.8777 9.91872 23.44 10.0704 23.0824 10.327C22.7308 9.59222 21.98 9.08338 21.1125 9.08338C20.2924 9.08338 19.5767 9.53805 19.2039 10.2086C18.8355 9.92451 18.3746 9.75464 17.8745 9.75464C17.1154 9.75464 16.4462 10.1446 16.0552 10.7344C15.6733 10.4068 15.1777 10.2083 14.6365 10.2083C13.433 10.2083 12.454 11.1873 12.454 12.3908V13.7596H9.76038V12.1689C9.76038 11.8577 9.5081 11.6055 9.19692 11.6055C8.88575 11.6055 8.63347 11.8577 8.63347 12.1689V25.2586C8.63347 25.8267 8.17128 26.2888 7.60324 26.2888H5.88222C5.31411 26.2888 4.852 25.8267 4.852 25.2586V7.583C4.852 7.01488 5.31419 6.5527 5.88222 6.5527H7.60302C8.17113 6.5527 8.63324 7.01488 8.63324 7.583V12.1004C8.63324 12.4116 8.88552 12.6638 9.1967 12.6638C9.50788 12.6638 9.76015 12.4116 9.76015 12.1004V7.583C9.76015 6.3935 8.79244 5.42578 7.60302 5.42578H5.88222C4.69273 5.42578 3.72509 6.3935 3.72509 7.583V9.08338H1.91955C1.0501 9.08338 0.342773 9.7907 0.342773 10.6601V22.1814C0.342773 23.0508 1.0501 23.7582 1.91955 23.7582H3.72509V25.2585C3.72509 26.448 4.69281 27.4157 5.88222 27.4157H7.60302C8.79251 27.4157 9.76015 26.448 9.76015 25.2585V19.0821H11.6911V20.111C11.6911 20.6398 11.876 21.1559 12.212 21.5644L13.9619 23.6918V33.8346C13.9619 34.1459 14.2142 34.3981 14.5253 34.3981C14.8365 34.3981 15.0888 34.1459 15.0888 33.8346V23.4899C15.0888 23.3593 15.0434 23.2328 14.9605 23.1319L13.0823 20.8484C12.9118 20.6412 12.8179 20.3793 12.8179 20.111V19.0821L23.4739 19.1473C23.785 19.1473 24.0373 18.8951 24.0373 18.5838C24.0373 18.2726 23.785 18.0204 23.4739 18.0204H20.9101C20.3812 18.0204 19.9509 17.59 19.9509 17.0612C19.9509 16.5323 20.3812 16.102 20.9101 16.102H25.7549C26.0878 16.102 26.3586 16.3727 26.3586 16.7056V20.1109C26.3586 20.3792 26.2647 20.6412 26.0942 20.8483L24.216 23.1318C24.1331 23.2327 24.0877 23.3592 24.0877 23.4898V24.9759C24.0877 25.2872 24.34 25.5394 24.6512 25.5394C24.9624 25.5394 25.2146 25.2872 25.2146 24.9759V23.6917L26.9645 21.5643C27.3004 21.1558 27.4854 20.6397 27.4854 20.1109V19.0821H29.4164V25.2585C29.4164 26.4479 30.3841 27.4156 31.5735 27.4156H33.2943C34.4838 27.4156 35.4514 26.4479 35.4514 25.2585V23.7581H37.257C38.1264 23.7581 38.8337 23.0508 38.8337 22.1813V10.6601C38.834 9.7907 38.1266 9.08338 37.2572 9.08338ZM1.91955 22.6312C1.67148 22.6312 1.46969 22.4294 1.46969 22.1814V10.6601C1.46969 10.412 1.67148 10.2103 1.91955 10.2103H3.72509V22.6312H1.91955ZM24.3504 11.0456C24.9325 11.0456 25.406 11.5192 25.406 12.1012V14.199C25.406 14.4965 25.2798 14.7764 25.0638 14.9751H23.637C23.421 14.7764 23.2948 14.4965 23.2948 14.199V12.1012C23.2948 11.5192 23.7684 11.0456 24.3504 11.0456ZM20.0568 11.2658C20.0568 10.6838 20.5304 10.2103 21.1124 10.2103C21.6944 10.2103 22.1679 10.6838 22.1679 11.2658V14.199C22.1679 14.4965 22.0417 14.7764 21.8257 14.9751H20.9102C20.7547 14.9751 20.6032 14.9928 20.4573 15.0252C20.2065 14.8272 20.0568 14.5258 20.0568 14.199L20.0568 11.2658ZM16.8188 11.937C16.8188 11.355 17.2923 10.8815 17.8743 10.8815C18.4563 10.8815 18.9299 11.355 18.9299 11.937V14.1989C18.9299 14.781 18.4564 15.2545 17.8743 15.2545C17.2922 15.2545 16.8188 14.781 16.8188 14.1989V11.937ZM13.5807 12.3907C13.5807 11.8087 14.0542 11.3352 14.6362 11.3352C15.2182 11.3352 15.6918 11.8087 15.6918 12.3907V14.199C15.6918 14.7811 15.2182 15.2546 14.6362 15.2546C14.0542 15.2546 13.5807 14.7811 13.5807 14.199V12.3907ZM9.76023 14.8863H12.5653C12.8541 15.7539 13.673 16.3814 14.6363 16.3814C15.278 16.3814 15.8559 16.1029 16.2556 15.6605C16.6553 16.1028 17.2327 16.3814 17.8744 16.3814C18.3392 16.3814 18.7694 16.234 19.1237 15.9853C18.9338 16.2996 18.8242 16.6678 18.8242 17.0612C18.8242 17.3809 18.8967 17.6841 19.0259 17.9551H9.76023V14.8863ZM27.4857 17.9552V16.7057C27.4857 15.9592 27.0106 15.3217 26.3469 15.0794C26.3747 15.0164 26.3994 14.9519 26.4212 14.8863H29.4166V17.9552H27.4857ZM37.7071 22.1814C37.7071 22.4295 37.5053 22.6312 37.2572 22.6312H35.4517V21.0029C35.4517 20.6917 35.1994 20.4395 34.8882 20.4395C34.577 20.4395 34.3247 20.6917 34.3247 21.0029V25.2585C34.3247 25.8267 33.8626 26.2888 33.2945 26.2888H31.5737C31.0056 26.2888 30.5435 25.8267 30.5435 25.2585V7.583C30.5435 7.01488 31.0057 6.5527 31.5737 6.5527H33.2945C33.8626 6.5527 34.3247 7.01488 34.3247 7.583V20.9344C34.3247 21.2457 34.577 21.4979 34.8882 21.4979C35.1994 21.4979 35.4517 21.2457 35.4517 20.9344V10.2103H37.2572C37.5053 10.2103 37.7071 10.4121 37.7071 10.6601V22.1814Z" fill="white"/>
<path d="M24.6513 23.3164C24.3402 23.3164 24.0879 23.5686 24.0879 23.8799V33.8364C24.0879 34.1476 24.3402 34.3998 24.6513 34.3998C24.9625 34.3998 25.2148 34.1476 25.2148 33.8364V23.8799C25.2148 23.5686 24.9626 23.3164 24.6513 23.3164Z" fill="white"/>
</g>
<defs>
<clipPath id="clip0_1946_4594">
<rect width="38.4912" height="38.4913" fill="white" transform="translate(0.342773 0.664062)"/>
</clipPath>
</defs>
</svg>
