<svg width="39" height="40" viewBox="0 0 39 40" fill="none" xmlns="http://www.w3.org/2000/svg">
<g clip-path="url(#clip0_1946_4574)">
<path d="M14.9651 26.965H12.3994V24.3992C12.3994 24.045 12.1122 23.7578 11.758 23.7578H9.19231C8.83808 23.7578 8.55088 24.045 8.55088 24.3992V26.965H5.98518C5.63095 26.965 5.34375 27.2522 5.34375 27.6064V30.1721C5.34375 30.5263 5.63095 30.8135 5.98518 30.8135H8.55088V33.3792C8.55088 33.7335 8.83808 34.0207 9.19231 34.0207H11.758C12.1122 34.0207 12.3994 33.7335 12.3994 33.3792V30.8135H14.9651C15.3194 30.8135 15.6066 30.5263 15.6066 30.1721V27.6064C15.6066 27.2522 15.3194 26.965 14.9651 26.965ZM14.3237 29.5307H11.758C11.4038 29.5307 11.1166 29.8179 11.1166 30.1721V32.7378H9.83373V30.1721C9.83373 29.8179 9.54654 29.5307 9.19231 29.5307H6.6266V28.2478H9.19231C9.54654 28.2478 9.83373 27.9606 9.83373 27.6064V25.0407H11.1166V27.6064C11.1166 27.9606 11.4038 28.2478 11.758 28.2478H14.3237V29.5307Z" fill="white"/>
<path d="M38.6321 27.7189C38.1402 23.2989 33.9889 19.1636 29.5649 18.6921C29.1892 18.6507 28.8115 18.6293 28.4335 18.628H21.3778V16.0623H20.0949V14.7794C20.0949 13.3624 18.9462 12.2137 17.5292 12.2137H14.3221C13.6136 12.2137 13.0392 11.6394 13.0392 10.9308C13.0392 10.2223 13.6136 9.64797 14.3221 9.64797H24.5849C26.0019 9.64797 27.1506 8.49925 27.1506 7.08226C27.1506 5.66526 26.0019 4.51654 24.5849 4.51654H21.3778C20.6692 4.51654 20.0949 3.94222 20.0949 3.23368V0.667969H18.8121V3.23368C18.8121 4.65068 19.9608 5.7994 21.3778 5.7994H24.5849C25.2934 5.7994 25.8678 6.37372 25.8678 7.08226C25.8678 7.7908 25.2934 8.36511 24.5849 8.36511H14.3221C12.9051 8.36511 11.7564 9.51383 11.7564 10.9308C11.7564 12.3478 12.9051 13.4965 14.3221 13.4965H17.5292C18.2378 13.4965 18.8121 14.0709 18.8121 14.7794V16.0623H17.5292V18.628H10.4735C10.0951 18.6289 9.71689 18.6503 9.34077 18.6921C4.91493 19.1668 0.766187 23.3021 0.275496 27.7222C-0.368897 33.3534 3.67369 38.4409 9.30502 39.0853C11.5981 39.3477 13.9127 38.8295 15.875 37.6143C16.7198 37.0613 17.6855 36.72 18.6902 36.6195C19.1865 36.5803 19.685 36.5785 20.1815 36.6144C21.2021 36.7131 22.1833 37.0582 23.041 37.6201C27.8625 40.5999 34.1867 39.1069 37.1665 34.2853C38.3789 32.3234 38.8953 30.0102 38.6321 27.7189ZM18.8121 17.3451H20.0949V18.628H18.8121V17.3451ZM35.1268 34.8779C32.2268 38.1216 27.4178 38.8177 23.7171 36.5296C22.6836 35.8567 21.5014 35.4465 20.2732 35.3346C20.0026 35.315 19.7293 35.3051 19.4535 35.3051C19.1617 35.3051 18.8762 35.3173 18.5889 35.3398C17.3794 35.4556 16.2158 35.8618 15.197 36.5238C10.9795 39.1333 5.44515 37.8297 2.83567 33.6122C1.77339 31.8952 1.3207 29.8704 1.55065 27.8645C1.97271 24.066 5.67631 20.3765 9.47868 19.9679C9.80902 19.931 10.1411 19.912 10.4735 19.9108H28.4335C28.7658 19.9111 29.0979 19.9288 29.4283 19.9641C33.2301 20.3727 36.933 24.0622 37.3563 27.8607C37.6588 30.4117 36.8462 32.9693 35.1268 34.8779Z" fill="white"/>
<path d="M28.4319 22.4766C27.0149 22.4766 25.8662 23.6253 25.8662 25.0423C25.8662 26.4593 27.0149 27.608 28.4319 27.608C29.8489 27.608 30.9976 26.4593 30.9976 25.0423C30.9976 23.6253 29.8489 22.4766 28.4319 22.4766ZM28.4319 26.3251C27.7234 26.3251 27.1491 25.7508 27.1491 25.0423C27.1491 24.3337 27.7234 23.7594 28.4319 23.7594C29.1405 23.7594 29.7148 24.3337 29.7148 25.0423C29.7148 25.7508 29.1404 26.3251 28.4319 26.3251Z" fill="white"/>
<path d="M28.4319 30.1719C27.0149 30.1719 25.8662 31.3206 25.8662 32.7376C25.8662 34.1546 27.0149 35.3033 28.4319 35.3033C29.8489 35.3033 30.9976 34.1546 30.9976 32.7376C30.9976 31.3206 29.8489 30.1719 28.4319 30.1719ZM28.4319 34.0204C27.7234 34.0204 27.1491 33.4461 27.1491 32.7376C27.1491 32.0291 27.7234 31.4547 28.4319 31.4547C29.1405 31.4547 29.7148 32.0291 29.7148 32.7376C29.7148 33.4461 29.1404 34.0204 28.4319 34.0204Z" fill="white"/>
<path d="M23.9436 26.3242C22.5266 26.3242 21.3779 27.4729 21.3779 28.8899C21.3779 30.3069 22.5266 31.4556 23.9436 31.4556C25.3606 31.4556 26.5093 30.3069 26.5093 28.8899C26.5093 27.4729 25.3606 26.3242 23.9436 26.3242ZM23.9436 30.1728C23.2351 30.1728 22.6608 29.5985 22.6608 28.8899C22.6608 28.1814 23.2351 27.6071 23.9436 27.6071C24.6522 27.6071 25.2265 28.1814 25.2265 28.8899C25.2265 29.5985 24.6521 30.1728 23.9436 30.1728Z" fill="white"/>
<path d="M32.9231 26.3242C31.5061 26.3242 30.3574 27.4729 30.3574 28.8899C30.3574 30.3069 31.5061 31.4556 32.9231 31.4556C34.3401 31.4556 35.4888 30.3069 35.4888 28.8899C35.4888 27.4729 34.3401 26.3242 32.9231 26.3242ZM32.9231 30.1728C32.2146 30.1728 31.6403 29.5985 31.6403 28.8899C31.6403 28.1814 32.2146 27.6071 32.9231 27.6071C33.6317 27.6071 34.206 28.1814 34.206 28.8899C34.206 29.5985 33.6316 30.1728 32.9231 30.1728Z" fill="white"/>
</g>
<defs>
<clipPath id="clip0_1946_4574">
<rect width="38.4912" height="38.4913" fill="white" transform="translate(0.206055 0.664062)"/>
</clipPath>
</defs>
</svg>
