<svg width="40" height="39" viewBox="0 0 40 39" fill="none" xmlns="http://www.w3.org/2000/svg">
<g clip-path="url(#clip0_1656_4649)">
<path d="M15.4691 26.8087H12.9033V24.243C12.9033 23.8888 12.6161 23.6016 12.2619 23.6016H9.69621C9.34199 23.6016 9.05479 23.8888 9.05479 24.243V26.8087H6.48908C6.13485 26.8087 5.84766 27.0959 5.84766 27.4501V30.0159C5.84766 30.3701 6.13485 30.6573 6.48908 30.6573H9.05479V33.223C9.05479 33.5772 9.34199 33.8644 9.69621 33.8644H12.2619C12.6161 33.8644 12.9033 33.5772 12.9033 33.223V30.6573H15.4691C15.8233 30.6573 16.1105 30.3701 16.1105 30.0159V27.4501C16.1105 27.0959 15.8233 26.8087 15.4691 26.8087ZM14.8276 29.3744H12.2619C11.9077 29.3744 11.6205 29.6616 11.6205 30.0159V32.5816H10.3376V30.0159C10.3376 29.6616 10.0504 29.3744 9.69621 29.3744H7.13051V28.0916H9.69621C10.0504 28.0916 10.3376 27.8044 10.3376 27.4501V24.8844H11.6205V27.4501C11.6205 27.8044 11.9077 28.0916 12.2619 28.0916H14.8276V29.3744Z" fill="black"/>
<path d="M39.137 27.5637C38.6451 23.1436 34.4937 19.0083 30.0698 18.5368C29.6941 18.4954 29.3164 18.474 28.9384 18.4727H21.8827V15.907H20.5998V14.6241C20.5998 13.2071 19.4511 12.0584 18.0341 12.0584H14.827C14.1184 12.0584 13.5441 11.4841 13.5441 10.7756C13.5441 10.067 14.1184 9.4927 14.827 9.4927H25.0898C26.5068 9.4927 27.6555 8.34398 27.6555 6.92698C27.6555 5.50999 26.5068 4.36127 25.0898 4.36127H21.8827C21.1741 4.36127 20.5998 3.78695 20.5998 3.07841V0.512695H19.317V3.07841C19.317 4.49541 20.4657 5.64413 21.8827 5.64413H25.0898C25.7983 5.64413 26.3726 6.21845 26.3726 6.92698C26.3726 7.63552 25.7983 8.20984 25.0898 8.20984H14.827C13.41 8.20984 12.2613 9.35856 12.2613 10.7756C12.2613 12.1926 13.41 13.3413 14.827 13.3413H18.0341C18.7426 13.3413 19.317 13.9156 19.317 14.6241V15.907H18.0341V18.4727H10.9784C10.6 18.4736 10.2218 18.495 9.84566 18.5368C5.41982 19.0115 1.27107 23.1468 0.780379 27.5669C0.135986 33.1981 4.17858 38.2856 9.8099 38.93C12.103 39.1925 14.4176 38.6742 16.3799 37.4591C17.2247 36.906 18.1904 36.5648 19.1951 36.4642C19.6914 36.425 20.1899 36.4232 20.6864 36.4591C21.707 36.5578 22.6882 36.903 23.5459 37.4648C28.3674 40.4446 34.6916 38.9516 37.6714 34.13C38.8838 32.1681 39.4002 29.8549 39.137 27.5637ZM19.317 17.1898H20.5998V18.4727H19.317V17.1898ZM35.6316 34.7227C32.7317 37.9664 27.9227 38.6625 24.2219 36.3743C23.1885 35.7014 22.0063 35.2912 20.7781 35.1794C20.5074 35.1597 20.2342 35.1499 19.9584 35.1499C19.6665 35.1499 19.3811 35.162 19.0937 35.1845C17.8843 35.3003 16.7207 35.7065 15.7019 36.3686C11.4843 38.978 5.95003 37.6744 3.34055 33.4569C2.27827 31.7399 1.82558 29.7151 2.05553 27.7093C2.47759 23.9107 6.18119 20.2212 9.98356 19.8126C10.3139 19.7757 10.646 19.7567 10.9784 19.7556H28.9384C29.2707 19.7558 29.6028 19.7735 29.9332 19.8088C33.7349 20.2174 37.4379 23.9069 37.8612 27.7054C38.1637 30.2565 37.3511 32.814 35.6316 34.7227Z" fill="black"/>
<path d="M28.9368 22.3203C27.5198 22.3203 26.3711 23.469 26.3711 24.886C26.3711 26.303 27.5198 27.4517 28.9368 27.4517C30.3538 27.4517 31.5025 26.303 31.5025 24.886C31.5025 23.469 30.3538 22.3203 28.9368 22.3203ZM28.9368 26.1689C28.2283 26.1689 27.6539 25.5946 27.6539 24.886C27.6539 24.1775 28.2283 23.6032 28.9368 23.6032C29.6453 23.6032 30.2197 24.1775 30.2197 24.886C30.2197 25.5946 29.6453 26.1689 28.9368 26.1689Z" fill="black"/>
<path d="M28.9368 30.0186C27.5198 30.0186 26.3711 31.1673 26.3711 32.5843C26.3711 34.0013 27.5198 35.15 28.9368 35.15C30.3538 35.15 31.5025 34.0013 31.5025 32.5843C31.5025 31.1673 30.3538 30.0186 28.9368 30.0186ZM28.9368 33.8671C28.2283 33.8671 27.6539 33.2928 27.6539 32.5843C27.6539 31.8757 28.2283 31.3014 28.9368 31.3014C29.6453 31.3014 30.2197 31.8757 30.2197 32.5843C30.2197 33.2928 29.6453 33.8671 28.9368 33.8671Z" fill="black"/>
<path d="M24.4485 26.1699C23.0315 26.1699 21.8828 27.3186 21.8828 28.7356C21.8828 30.1526 23.0315 31.3014 24.4485 31.3014C25.8655 31.3014 27.0142 30.1526 27.0142 28.7356C27.0142 27.3186 25.8655 26.1699 24.4485 26.1699ZM24.4485 30.0185C23.74 30.0185 23.1657 29.4442 23.1657 28.7356C23.1657 28.0271 23.74 27.4528 24.4485 27.4528C25.1571 27.4528 25.7314 28.0271 25.7314 28.7356C25.7314 29.4442 25.157 30.0185 24.4485 30.0185Z" fill="black"/>
<path d="M33.427 26.1689C32.01 26.1689 30.8613 27.3177 30.8613 28.7347C30.8613 30.1517 32.01 31.3004 33.427 31.3004C34.844 31.3004 35.9927 30.1517 35.9927 28.7347C35.9927 27.3177 34.844 26.1689 33.427 26.1689ZM33.427 30.0175C32.7185 30.0175 32.1442 29.4432 32.1442 28.7347C32.1442 28.0261 32.7185 27.4518 33.427 27.4518C34.1356 27.4518 34.7099 28.0261 34.7099 28.7347C34.7099 29.4432 34.1355 30.0175 33.427 30.0175Z" fill="black"/>
</g>
<defs>
<clipPath id="clip0_1656_4649">
<rect width="38.4912" height="38.4913" fill="white" transform="translate(0.710938 0.508789)"/>
</clipPath>
</defs>
</svg>
