<svg width="44" height="38" viewBox="0 0 44 38" fill="none" xmlns="http://www.w3.org/2000/svg">
<path d="M43.6043 33.5426C43.3653 32.8673 42.8777 32.3256 42.2313 32.0171L38.7771 30.3685L38.8847 30.0971C39.0472 29.6877 38.8666 29.2223 38.4705 29.0295L32.6362 26.1899C32.2179 25.9862 31.7142 26.1604 31.5107 26.5785C31.3072 26.9967 31.4811 27.5005 31.8993 27.704L37.0312 30.2019L35.4502 33.834L19.1197 26.2667C19.0087 26.2154 18.8879 26.1886 18.7656 26.1886H10.7507C10.6704 26.1886 10.593 26.2006 10.5194 26.2216L9.87046 23.9178C9.74444 23.4703 9.27975 23.209 8.83174 23.3356C8.38416 23.4616 8.12345 23.9268 8.24955 24.3743L9.63874 29.306H5.30831L4.14013 21.2786C4.04109 20.5983 4.24237 19.9098 4.69215 19.3898C5.14192 18.8699 5.79425 18.5716 6.48181 18.5716C6.85058 18.5716 7.21952 18.6595 7.54867 18.8258L13.411 21.7871C13.4161 21.7897 13.4204 21.7913 13.4252 21.7935C13.5367 21.8472 13.6607 21.8776 13.7907 21.8776L19.9275 21.8769L34.6225 29.0295C34.7412 29.0873 34.8877 29.0339 35.0113 29.0339C35.4956 28.4873 35.139 29.4063 35.2846 29.1068C35.4881 28.6887 36.0812 27.8666 35.663 27.6631L21.409 20.7252L23.3423 18.1593H32.7993C33.3532 18.1593 33.894 18.0037 34.3596 17.7118L39.2313 14.6898C39.4298 14.5666 39.5663 14.3668 39.6118 14.1396C39.9983 14.0296 40.3631 13.8233 40.6669 13.5196L41.3317 12.8547C42.2838 11.9026 42.2838 10.3534 41.3317 9.40135L40.2151 8.28475C39.2631 7.33277 37.7138 7.3326 36.7618 8.28475L36.0969 8.94963C35.7916 9.25502 35.5846 9.62202 35.4751 10.0109C35.4271 10.0251 35.3796 10.0433 35.3337 10.0665L30.8193 12.3507L23.2063 11.2858C23.7586 10.7578 24.1705 10.0956 24.4005 9.34504L24.5969 8.70477C25.3282 6.31917 23.9823 3.78345 21.5968 3.05214C20.4412 2.69786 19.2166 2.81486 18.1491 3.38155C17.0814 3.94815 16.2985 4.89668 15.9442 6.05222L15.7479 6.69249C15.3976 7.83514 15.5249 9.01176 16.0137 10.0085L9.58075 9.0555L11.4481 7.47935C11.5946 7.35569 11.6923 7.18652 11.7295 7.00117C12.0859 6.88628 12.4211 6.68836 12.7035 6.40582L13.3684 5.74093C14.3205 4.78887 14.3205 3.23968 13.3684 2.28753L12.2518 1.17102C11.2998 0.218952 9.7506 0.21912 8.79845 1.17102L8.13356 1.8359C7.82885 2.14062 7.62217 2.50669 7.5126 2.89451C7.35935 2.92022 7.21159 2.98841 7.08819 3.09951L2.44699 7.28405C1.62144 8.02834 1.22958 9.12858 1.39866 10.2271C1.56783 11.3257 2.27242 12.257 3.28357 12.7186L11.8584 16.6332L12.5432 19.4621L8.30788 17.3228C7.74448 17.0382 7.11306 16.8876 6.48172 16.8876C5.30486 16.8876 4.18843 17.3982 3.41852 18.2881C2.64861 19.1782 2.30428 20.3566 2.47371 21.5211L3.74675 30.2692C3.77144 30.4388 3.84612 30.5899 3.95376 30.7098C2.02933 31.2028 0.602539 32.9515 0.602539 35.0274C0.602539 35.4923 0.979571 35.8694 1.44452 35.8694H13.3469C13.8119 35.8694 14.1889 35.4923 14.1889 35.0274C14.1889 34.5624 13.8119 34.1854 13.3469 34.1854H10.6274C10.667 34.0206 10.6886 33.8488 10.6886 33.672V30.9901H10.751C11.0147 30.9901 11.2631 30.8666 11.4223 30.6564C11.5815 30.4462 11.633 30.1736 11.5614 29.9198L10.9848 27.8727H18.5803L35.6688 35.7912C35.781 35.8432 35.9018 35.8693 36.0229 35.8693C36.1287 35.8693 36.2346 35.8494 36.3348 35.8094C36.4554 35.7613 36.561 35.686 36.6462 35.5918L39.8056 37.0997C40.1771 37.277 40.5697 37.3611 40.9565 37.3611C41.9582 37.3611 42.921 36.7977 43.3806 35.8349L43.4966 35.592C43.8049 34.9457 43.8433 34.2179 43.6043 33.5426ZM37.2876 10.1406L37.9525 9.47569C38.1002 9.32793 38.2943 9.25409 38.4883 9.25409C38.6825 9.25409 38.8764 9.32793 39.0241 9.47569L40.1407 10.5923C40.4362 10.8877 40.4362 11.3685 40.1407 11.6641L39.4758 12.3289C39.3328 12.472 39.1424 12.5508 38.94 12.5508C38.7376 12.5508 38.5473 12.472 38.4042 12.3289L37.2876 11.2123C36.9921 10.9168 36.9921 10.436 37.2876 10.1406ZM30.8472 14.0552C31.0174 14.0792 31.1907 14.0502 31.344 13.9727L35.5419 11.8486L37.4529 13.8111L33.4679 16.283C33.2673 16.4089 33.0359 16.4755 32.799 16.4755H22.9222C22.6578 16.4755 22.4087 16.5997 22.2497 16.8109L20.4159 19.2448L19.3902 16.1435L21.5643 12.7569L30.8472 14.0552ZM18.7098 14.0862L18.0397 12.0601C18.264 12.1729 18.5 12.2694 18.7479 12.3454C19.0644 12.4425 19.3863 12.5036 19.7085 12.5304L18.7098 14.0862ZM17.3578 7.18627L17.5541 6.546C17.7766 5.82042 18.2682 5.22499 18.9385 4.8692C19.3547 4.64827 19.8088 4.53625 20.2669 4.53625C20.5466 4.53625 20.828 4.57806 21.1031 4.66235C22.6008 5.12148 23.4458 6.71357 22.9867 8.21125L22.7904 8.85152C22.568 9.5771 22.0764 10.1725 21.406 10.5283C20.7358 10.8841 19.9672 10.9577 19.2414 10.7351C17.7437 10.2762 16.8988 8.68412 17.3578 7.18627ZM9.32434 3.0271L9.98922 2.36222C10.1369 2.21445 10.331 2.14062 10.525 2.14062C10.7192 2.14062 10.9131 2.21445 11.0608 2.36222L12.1774 3.47873C12.4729 3.77417 12.4729 4.25497 12.1774 4.55049L11.5125 5.21538C11.2172 5.5109 10.7362 5.5109 10.4409 5.21538L9.32425 4.09886C9.02881 3.80334 9.02881 3.32254 9.32434 3.0271ZM11.7007 12.4029C11.2487 12.5124 10.971 12.9674 11.0804 13.4194L11.3546 14.5522L3.98284 11.1869C3.48207 10.9584 3.14693 10.5152 3.06315 9.97116C2.97936 9.42714 3.1659 8.90353 3.57471 8.53501L7.63524 4.87417L9.64591 6.7971L7.06931 8.97197C6.81636 9.1854 6.712 9.52728 6.80245 9.84565C6.89298 10.164 7.16161 10.3999 7.48891 10.4483L16.1578 11.7326L18.956 20.1931L14.4531 20.1935L12.7173 13.0231C12.6077 12.5713 12.1531 12.2936 11.7007 12.4029ZM9.00454 33.6721C9.00445 33.955 8.77426 34.1855 8.49112 34.1855H2.41715C2.77445 33.0673 3.82345 32.2552 5.05873 32.2552C5.52368 32.2552 5.90071 31.8782 5.90071 31.4132C5.90071 31.2589 5.85848 31.1147 5.7859 30.9903H9.00437L9.00454 33.6721ZM41.9767 34.8666L41.8608 35.1094C41.6238 35.6058 41.0273 35.8168 40.5309 35.58L37.3177 34.0465L37.8247 32.7688L38.2091 31.9635L41.506 33.537C41.7464 33.6518 41.9278 33.8534 42.0167 34.1045C42.1056 34.3557 42.0914 34.6263 41.9767 34.8666Z" fill="white"/>
</svg>
