<svg width="40" height="40" viewBox="0 0 40 40" fill="none" xmlns="http://www.w3.org/2000/svg">
<g clip-path="url(#clip0_1946_4528)">
<path d="M19.9069 30.4349C16.7565 30.4349 14.1934 27.8718 14.1934 24.7214C14.1934 21.571 16.7565 19.0078 19.9069 19.0078C23.0573 19.0078 25.6204 21.571 25.6204 24.7214C25.6204 27.8718 23.0573 30.4349 19.9069 30.4349ZM19.9069 20.8121C17.7514 20.8121 15.9976 22.5659 15.9976 24.7214C15.9976 26.8769 17.7514 28.6306 19.9069 28.6306C22.0624 28.6306 23.8162 26.8769 23.8162 24.7214C23.8162 22.5659 22.0624 20.8121 19.9069 20.8121Z" fill="white"/>
<path d="M25.9209 38.8532H13.8924C13.3943 38.8532 12.9902 38.4491 12.9902 37.951V35.5453C12.9902 31.7318 16.0925 28.6289 19.9066 28.6289C23.7207 28.6289 26.823 31.7318 26.823 35.5453V37.951C26.823 38.4491 26.419 38.8532 25.9209 38.8532ZM14.7945 37.0489H25.0187V35.5453C25.0187 32.7267 22.7259 30.4332 19.9066 30.4332C17.0874 30.4332 14.7945 32.7267 14.7945 35.5453V37.0489Z" fill="white"/>
<path d="M27.1239 28.0287C25.9857 28.0287 24.8839 27.6927 23.9383 27.0573C23.5248 26.7794 23.4145 26.2191 23.6916 25.8057C23.9699 25.3917 24.5303 25.2812 24.9438 25.5596C25.5922 25.9948 26.3451 26.2244 27.1239 26.2244C29.2794 26.2244 31.0332 24.4706 31.0332 22.3151C31.0332 20.1596 29.2794 18.4058 27.1239 18.4058C25.4629 18.4058 23.9829 19.4571 23.4426 21.0224C23.2794 21.4929 22.7684 21.7424 22.295 21.5804C21.8239 21.4177 21.5749 20.9038 21.737 20.4328C22.5287 18.1416 24.6936 16.6016 27.1239 16.6016C30.2743 16.6016 32.8375 19.1647 32.8375 22.3151C32.8375 25.4655 30.2743 28.0287 27.1239 28.0287Z" fill="white"/>
<path d="M33.1369 36.447H25.9198C25.4217 36.447 25.0176 36.043 25.0176 35.5449C25.0176 35.0468 25.4217 34.6428 25.9198 34.6428H32.2347V33.1392C32.2347 31.7772 31.7038 30.4904 30.7394 29.5153C29.7714 28.558 28.484 28.0271 27.1226 28.0271C25.3595 28.0271 23.7478 28.9168 22.8104 30.4075C22.5461 30.8286 21.9893 30.9584 21.5664 30.6911C21.1447 30.4263 21.0178 29.8695 21.2833 29.4477C22.5519 27.4285 24.7356 26.2227 27.1225 26.2227C28.962 26.2227 30.6993 26.9386 32.015 28.2396C33.3224 29.5611 34.0389 31.2991 34.0389 33.1391V35.5448C34.0389 36.0429 33.635 36.447 33.1369 36.447Z" fill="white"/>
<path d="M12.6891 28.0287C9.53874 28.0287 6.97559 25.4655 6.97559 22.3151C6.97559 19.1647 9.53874 16.6016 12.6891 16.6016C15.1195 16.6016 17.2844 18.1416 18.0761 20.4328C18.2382 20.9038 17.9891 21.4177 17.5181 21.5804C17.047 21.7426 16.5337 21.4929 16.3704 21.0224C15.8301 19.4571 14.35 18.4058 12.6891 18.4058C10.5336 18.4058 8.77986 20.1596 8.77986 22.3151C8.77986 24.4706 10.5336 26.2244 12.6891 26.2244C13.468 26.2244 14.2208 25.9948 14.8693 25.5596C15.2828 25.2812 15.8419 25.3917 16.1215 25.8057C16.3987 26.2192 16.2883 26.7795 15.8747 27.0573C14.9292 27.6927 13.8274 28.0287 12.6891 28.0287Z" fill="white"/>
<path d="M13.8917 36.4469H6.6746C6.1765 36.4469 5.77246 36.0429 5.77246 35.5448V33.1391C5.77246 31.2989 6.489 29.5611 7.7894 28.2466C9.11205 26.9386 10.8493 26.2227 12.6888 26.2227C15.0758 26.2227 17.2594 27.4284 18.5281 29.4477C18.7935 29.8695 18.6666 30.4263 18.2449 30.6911C17.8209 30.9584 17.2652 30.8286 17.0009 30.4075C16.0636 28.9168 14.452 28.0271 12.6887 28.0271C11.3273 28.0271 10.0399 28.558 9.0649 29.5224C8.10755 30.4904 7.57662 31.7772 7.57662 33.1392V34.6428H13.8916C14.3897 34.6428 14.7937 35.0468 14.7937 35.5449C14.7937 36.043 14.3898 36.4469 13.8917 36.4469Z" fill="white"/>
<path d="M23.5697 15.243C23.3301 15.243 23.0905 15.1853 22.8684 15.0691L19.9059 13.5116L16.9434 15.0691C16.4336 15.3352 15.8263 15.2941 15.36 14.954C14.8936 14.6152 14.6646 14.0513 14.762 13.4833L15.327 10.1854L12.9319 7.84962C12.5196 7.44787 12.3728 6.85763 12.5513 6.309C12.7298 5.76038 13.1951 5.36813 13.766 5.28525L17.0773 4.80423L18.5574 1.80299C18.8135 1.28613 19.3303 0.964844 19.9059 0.964844C20.4815 0.964844 20.9983 1.28613 21.2544 1.80299L22.7345 4.80423L26.0459 5.28525C26.6167 5.36801 27.0819 5.76038 27.2605 6.309C27.4391 6.85763 27.2922 7.44787 26.8799 7.84962L24.4848 10.1854L25.0498 13.4839C25.1473 14.0513 24.9182 14.6151 24.4518 14.954C24.1887 15.1461 23.8798 15.243 23.5697 15.243ZM14.6282 6.98332L16.7003 9.00376C17.0562 9.3491 17.2172 9.8478 17.1326 10.337L16.644 13.1885L19.2072 11.8406C19.6454 11.6097 20.168 11.6103 20.6062 11.8412L23.1682 13.1885L22.6796 10.3341C22.595 9.8478 22.7559 9.34922 23.1131 9.00268L25.184 6.98344L22.3201 6.56702C21.8291 6.49533 21.4062 6.18824 21.1878 5.74474L19.9063 3.14875L18.6258 5.74414C18.4062 6.18812 17.9833 6.49533 17.4935 6.56702L14.6282 6.98332Z" fill="white"/>
<path d="M33.1369 8.04256H30.7312C30.2331 8.04256 29.8291 7.63852 29.8291 7.14042C29.8291 6.64232 30.2331 6.23828 30.7312 6.23828H33.1369C33.635 6.23828 34.0391 6.64232 34.0391 7.14042C34.0391 7.63852 33.635 8.04256 33.1369 8.04256Z" fill="white"/>
<path d="M29.7588 3.82473C29.424 3.82473 29.1033 3.63852 28.9471 3.31784C28.7286 2.87026 28.9142 2.32994 29.3617 2.1115L31.5243 1.0566C31.973 0.837558 32.5122 1.02424 32.7306 1.47242C32.9491 1.92001 32.7635 2.46033 32.316 2.67877L30.1534 3.73367C30.0254 3.79538 29.8914 3.82473 29.7588 3.82473Z" fill="white"/>
<path d="M31.919 13.3113C31.7862 13.3113 31.6524 13.2819 31.5244 13.2202L29.3618 12.1659C28.9142 11.9475 28.7286 11.407 28.9471 10.9596C29.1657 10.5121 29.7048 10.327 30.1535 10.5438L32.3161 11.5981C32.7637 11.8165 32.9493 12.3569 32.7307 12.8044C32.5745 13.1251 32.2538 13.3113 31.919 13.3113Z" fill="white"/>
<path d="M9.0803 8.04256H6.6746C6.1765 8.04256 5.77246 7.63852 5.77246 7.14042C5.77246 6.64232 6.1765 6.23828 6.6746 6.23828H9.0803C9.5784 6.23828 9.98243 6.64232 9.98243 7.14042C9.98243 7.63852 9.5784 8.04256 9.0803 8.04256Z" fill="white"/>
<path d="M10.0528 3.8236C9.92002 3.8236 9.78614 3.79425 9.65816 3.73255L7.49556 2.67764C7.04797 2.45921 6.86238 1.91876 7.08093 1.4713C7.29949 1.02384 7.8362 0.83872 8.28727 1.05547L10.4499 2.11038C10.8975 2.32882 11.0831 2.86926 10.8645 3.31672C10.7082 3.6374 10.3876 3.8236 10.0528 3.8236Z" fill="white"/>
<path d="M7.89254 13.3122C7.55779 13.3122 7.23711 13.126 7.08086 12.8053C6.86242 12.3577 7.04802 11.8174 7.49548 11.599L9.65808 10.5447C10.1116 10.3256 10.6472 10.5135 10.8644 10.9605C11.0829 11.4081 10.8973 11.9484 10.4498 12.1668L8.2872 13.2211C8.15921 13.2828 8.02401 13.3122 7.89254 13.3122Z" fill="white"/>
</g>
<defs>
<clipPath id="clip0_1946_4528">
<rect width="38.4912" height="38.4913" fill="white" transform="translate(0.662109 0.664062)"/>
</clipPath>
</defs>
</svg>
