<svg width="39" height="39" viewBox="0 0 39 39" fill="none" xmlns="http://www.w3.org/2000/svg">
<g clip-path="url(#clip0_1656_4504)">
<path d="M19.6921 30.2797C16.5417 30.2797 13.9785 27.7165 13.9785 24.5661C13.9785 21.4157 16.5417 18.8525 19.6921 18.8525C22.8424 18.8525 25.4056 21.4157 25.4056 24.5661C25.4056 27.7165 22.8424 30.2797 19.6921 30.2797ZM19.6921 20.6568C17.5365 20.6568 15.7828 22.4106 15.7828 24.5661C15.7828 26.7216 17.5365 28.4754 19.6921 28.4754C21.8476 28.4754 23.6013 26.7216 23.6013 24.5661C23.6013 22.4106 21.8476 20.6568 19.6921 20.6568Z" fill="black"/>
<path d="M25.706 38.6989H13.6775C13.1794 38.6989 12.7754 38.2948 12.7754 37.7967V35.391C12.7754 31.5775 15.8777 28.4746 19.6918 28.4746C23.5059 28.4746 26.6082 31.5775 26.6082 35.391V37.7967C26.6082 38.2948 26.2041 38.6989 25.706 38.6989ZM14.5797 36.8946H24.8039V35.391C24.8039 32.5724 22.511 30.2789 19.6918 30.2789C16.8725 30.2789 14.5797 32.5724 14.5797 35.391V36.8946Z" fill="black"/>
<path d="M26.9091 27.8734C25.7708 27.8734 24.669 27.5374 23.7235 26.902C23.3099 26.6241 23.1996 26.0638 23.4767 25.6504C23.7551 25.2364 24.3155 25.126 24.7289 25.4043C25.3774 25.8395 26.1302 26.0691 26.9091 26.0691C29.0646 26.0691 30.8183 24.3154 30.8183 22.1598C30.8183 20.0043 29.0646 18.2506 26.9091 18.2506C25.2481 18.2506 23.7681 19.3019 23.2278 20.8671C23.0645 21.3376 22.5536 21.5872 22.0801 21.4251C21.6091 21.2624 21.3601 20.7485 21.5221 20.2775C22.3138 17.9863 24.4787 16.4463 26.9091 16.4463C30.0595 16.4463 32.6226 19.0095 32.6226 22.1598C32.6226 25.3102 30.0595 27.8734 26.9091 27.8734Z" fill="black"/>
<path d="M32.922 36.2937H25.7049C25.2068 36.2937 24.8028 35.8897 24.8028 35.3916C24.8028 34.8935 25.2068 34.4894 25.7049 34.4894H32.0199V32.9859C32.0199 31.6239 31.489 30.3371 30.5245 29.362C29.5566 28.4047 28.2692 27.8737 26.9078 27.8737C25.1446 27.8737 23.533 28.7635 22.5956 30.2542C22.3313 30.6753 21.7745 30.8051 21.3516 30.5378C20.9299 30.2729 20.803 29.7161 21.0684 29.2944C22.3371 27.2752 24.5207 26.0693 26.9077 26.0693C28.7472 26.0693 30.4845 26.7853 31.8001 28.0863C33.1075 29.4077 33.8241 31.1457 33.8241 32.9857V35.3915C33.8241 35.8896 33.4201 36.2937 32.922 36.2937Z" fill="black"/>
<path d="M12.4753 27.8734C9.32487 27.8734 6.76172 25.3102 6.76172 22.1598C6.76172 19.0095 9.32487 16.4463 12.4753 16.4463C14.9056 16.4463 17.0705 17.9863 17.8622 20.2775C18.0244 20.7485 17.7752 21.2624 17.3042 21.4251C16.8332 21.5873 16.3198 21.3376 16.1566 20.8671C15.6163 19.3019 14.1361 18.2506 12.4753 18.2506C10.3197 18.2506 8.56599 20.0043 8.56599 22.1598C8.56599 24.3154 10.3197 26.0691 12.4753 26.0691C13.2541 26.0691 14.007 25.8395 14.6554 25.4043C15.069 25.126 15.628 25.2364 15.9076 25.6504C16.1848 26.064 16.0744 26.6242 15.6609 26.902C14.7153 27.5374 13.6135 27.8734 12.4753 27.8734Z" fill="black"/>
<path d="M13.6778 36.2936H6.46073C5.96263 36.2936 5.55859 35.8896 5.55859 35.3915V32.9857C5.55859 31.1456 6.27513 29.4077 7.57553 28.0933C8.89819 26.7853 10.6355 26.0693 12.475 26.0693C14.8619 26.0693 17.0456 27.2751 18.3142 29.2944C18.5797 29.7161 18.4528 30.2729 18.0311 30.5378C17.6071 30.8051 17.0513 30.6753 16.7871 30.2542C15.8497 28.7635 14.2381 27.8737 12.4749 27.8737C11.1135 27.8737 9.82606 28.4047 8.85103 29.3691C7.89369 30.3371 7.36275 31.6239 7.36275 32.9859V34.4894H13.6777C14.1758 34.4894 14.5798 34.8935 14.5798 35.3916C14.5798 35.8897 14.1759 36.2936 13.6778 36.2936Z" fill="black"/>
<path d="M23.3548 15.0877C23.1152 15.0877 22.8756 15.0301 22.6536 14.9139L19.6911 13.3563L16.7286 14.9139C16.2188 15.1799 15.6115 15.1388 15.1451 14.7988C14.6788 14.4599 14.4498 13.896 14.5472 13.328L15.1122 10.0302L12.7171 7.69435C12.3047 7.29259 12.158 6.70235 12.3365 6.15373C12.515 5.60511 12.9802 5.21286 13.5511 5.12998L16.8624 4.64896L18.3425 1.64772C18.5986 1.13085 19.1155 0.80957 19.6911 0.80957C20.2666 0.80957 20.7835 1.13085 21.0396 1.64772L22.5197 4.64896L25.831 5.12998C26.4019 5.21274 26.867 5.60511 27.0457 6.15373C27.2243 6.70235 27.0774 7.29259 26.6651 7.69435L24.27 10.0302L24.8349 13.3286C24.9325 13.896 24.7033 14.4598 24.237 14.7988C23.9738 14.9909 23.6649 15.0877 23.3548 15.0877ZM14.4133 6.82805L16.4855 8.84848C16.8414 9.19382 17.0023 9.69253 16.9178 10.1817L16.4292 13.0332L18.9923 11.6853C19.4305 11.4545 19.9532 11.4551 20.3914 11.6859L22.9533 13.0332L22.4647 10.1788C22.3802 9.69253 22.5411 9.19394 22.8982 8.8474L24.9692 6.82817L22.1053 6.41174C21.6143 6.34005 21.1914 6.03296 20.9729 5.58947L19.6914 2.99347L18.411 5.58887C18.1913 6.03284 17.7684 6.34005 17.2786 6.41174L14.4133 6.82805Z" fill="black"/>
<path d="M32.9211 7.88729H30.5154C30.0173 7.88729 29.6133 7.48325 29.6133 6.98515C29.6133 6.48705 30.0173 6.08301 30.5154 6.08301H32.9211C33.4192 6.08301 33.8233 6.48705 33.8233 6.98515C33.8233 7.48325 33.4192 7.88729 32.9211 7.88729Z" fill="black"/>
<path d="M29.5439 3.66848C29.2092 3.66848 28.8885 3.48227 28.7322 3.16159C28.5138 2.71401 28.6994 2.17369 29.1468 1.95525L31.3095 0.900347C31.7581 0.681308 32.2974 0.867991 32.5158 1.31617C32.7342 1.76376 32.5486 2.30408 32.1012 2.52252L29.9386 3.57742C29.8106 3.63913 29.6766 3.66848 29.5439 3.66848Z" fill="black"/>
<path d="M31.7042 13.156C31.5714 13.156 31.4375 13.1267 31.3095 13.065L29.1469 12.0107C28.6993 11.7922 28.5137 11.2518 28.7323 10.8043C28.9509 10.3568 29.49 10.1717 29.9386 10.3885L32.1012 11.4428C32.5488 11.6612 32.7344 12.2017 32.5159 12.6491C32.3596 12.9698 32.0389 13.156 31.7042 13.156Z" fill="black"/>
<path d="M8.86448 7.88729H6.45878C5.96068 7.88729 5.55664 7.48325 5.55664 6.98515C5.55664 6.48705 5.96068 6.08301 6.45878 6.08301H8.86448C9.36258 6.08301 9.76661 6.48705 9.76661 6.98515C9.76661 7.48325 9.36258 7.88729 8.86448 7.88729Z" fill="black"/>
<path d="M9.83699 3.66833C9.7042 3.66833 9.57032 3.63898 9.44234 3.57727L7.27973 2.52237C6.83215 2.30393 6.64656 1.76349 6.86511 1.31603C7.08367 0.868566 7.62038 0.683446 8.07145 0.900201L10.2341 1.9551C10.6816 2.17354 10.8672 2.71399 10.6487 3.16145C10.4924 3.48213 10.1717 3.66833 9.83699 3.66833Z" fill="black"/>
<path d="M7.67672 13.1569C7.34197 13.1569 7.02129 12.9707 6.86504 12.65C6.6466 12.2025 6.8322 11.6621 7.27966 11.4437L9.44226 10.3894C9.89574 10.1704 10.4314 10.3582 10.6486 10.8052C10.867 11.2528 10.6814 11.7931 10.234 12.0116L8.07138 13.0659C7.94339 13.1276 7.80819 13.1569 7.67672 13.1569Z" fill="black"/>
</g>
<defs>
<clipPath id="clip0_1656_4504">
<rect width="38.4912" height="38.4913" fill="white" transform="translate(0.447266 0.508789)"/>
</clipPath>
</defs>
</svg>
