<svg width="39" height="39" viewBox="0 0 39 39" fill="none" xmlns="http://www.w3.org/2000/svg">
<mask id="mask0_1656_4520" style="mask-type:luminance" maskUnits="userSpaceOnUse" x="0" y="0" width="39" height="39">
<path d="M0.263672 0.508656H38.7549V39H0.263672V0.508656Z" fill="white"/>
</mask>
<g mask="url(#mask0_1656_4520)">
<path d="M26.5947 25.1446C26.5262 25.2386 26.4503 25.3266 26.3684 25.4085C25.9602 25.8167 25.3964 26.0693 24.7738 26.0693H18.0078" stroke="black" stroke-width="1.7496" stroke-miterlimit="10" stroke-linecap="round" stroke-linejoin="round"/>
<path d="M26.5966 25.1444L34.1573 17.5507C35.0384 16.6696 36.466 16.6696 37.3464 17.5507C38.2274 18.431 38.2274 19.8586 37.3464 20.7397L26.9177 31.2023C26.3539 31.7669 25.5893 32.0834 24.7916 32.0834H12.4609L6.33538 38.248L1.01953 32.9104L11.4723 22.4395C12.0361 21.8749 12.8014 21.5584 13.5991 21.5584H24.7758C26.0216 21.5584 27.0312 22.568 27.0312 23.8138C27.0312 24.3115 26.8695 24.7716 26.5966 25.1444Z" stroke="black" stroke-width="1.7496" stroke-miterlimit="10" stroke-linecap="round" stroke-linejoin="round"/>
<path d="M26.3477 25.3896L26.5912 25.1453" stroke="black" stroke-width="1.7496" stroke-miterlimit="10" stroke-linecap="round" stroke-linejoin="round"/>
<path d="M19.5103 16.2951C19.4471 16.2245 16.5039 12.8857 16.5039 8.77806C16.5039 7.91726 16.6332 7.0903 16.8377 6.3204C17.6211 3.37566 19.511 1.26022 19.511 1.26022C19.511 1.26022 21.4137 3.39002 22.1919 6.35055C22.3926 7.1121 22.5182 7.92854 22.5182 8.77806C22.5182 12.5716 20.008 15.7088 19.5749 16.2221C19.5614 16.2372 19.5509 16.25 19.5419 16.2606C19.5215 16.2839 19.511 16.2959 19.511 16.2959" stroke="black" stroke-width="1.7496" stroke-miterlimit="10" stroke-linecap="round" stroke-linejoin="round"/>
<path d="M19.4825 16.2098C19.4997 16.2594 19.5095 16.2872 19.5111 16.2926L19.5118 16.2932C19.5118 16.2932 15.0936 17.2149 11.4978 15.1385C7.902 13.0629 6.49023 8.77539 6.49023 8.77539C6.49023 8.77539 9.26731 8.19652 12.209 8.99048" stroke="black" stroke-width="1.7496" stroke-miterlimit="10" stroke-linecap="round" stroke-linejoin="round"/>
<path d="M16.8353 6.32048C14.6845 4.16135 11.9908 3.27425 11.9908 3.27425C11.9908 3.27425 11.4119 6.05141 12.2058 8.99314C12.4133 9.76289 12.7148 10.5433 13.1456 11.2891C15.2212 14.8849 19.5086 16.2959 19.5086 16.2959C19.5086 16.2959 19.5161 16.2613 19.5274 16.1952C19.5327 16.2222 19.5462 16.2959 19.5462 16.2959C19.5462 16.2959 23.8336 14.8849 25.91 11.2891C26.3401 10.5433 26.6415 9.76289 26.849 8.99314C27.6429 6.05058 27.064 3.27425 27.064 3.27425C27.064 3.27425 24.3456 4.1697 22.1895 6.35055" stroke="black" stroke-width="1.7496" stroke-miterlimit="10" stroke-linecap="round" stroke-linejoin="round"/>
<path d="M19.5742 16.2098C19.5727 16.2136 19.5721 16.2166 19.5712 16.2196C19.5533 16.2684 19.5449 16.2932 19.5449 16.2932C19.5449 16.2932 23.964 17.2149 27.5597 15.1385C31.1555 13.0629 32.5665 8.77539 32.5665 8.77539C32.5665 8.77539 29.7903 8.19652 26.8477 8.99048" stroke="black" stroke-width="1.7496" stroke-miterlimit="10" stroke-linecap="round" stroke-linejoin="round"/>
</g>
</svg>
