<svg width="40" height="40" viewBox="0 0 40 40" fill="none" xmlns="http://www.w3.org/2000/svg">
<mask id="mask0_1946_4545" style="mask-type:luminance" maskUnits="userSpaceOnUse" x="0" y="0" width="40" height="40">
<path d="M0.797852 0.664906H39.289V39.1562H0.797852V0.664906Z" fill="white"/>
</mask>
<g mask="url(#mask0_1946_4545)">
<path d="M27.1288 25.3019C27.0604 25.3958 26.9845 25.4838 26.9026 25.5657C26.4944 25.9739 25.9306 26.2266 25.308 26.2266H18.542" stroke="white" stroke-width="1.7496" stroke-miterlimit="10" stroke-linecap="round" stroke-linejoin="round"/>
<path d="M27.1308 25.3027L34.6915 17.7089C35.5726 16.8278 37.0002 16.8278 37.8805 17.7089C38.7616 18.5892 38.7616 20.0168 37.8805 20.8979L27.4519 31.3605C26.8881 31.9251 26.1235 32.2416 25.3258 32.2416H12.9951L6.86955 38.4062L1.55371 33.0686L12.0065 22.5977C12.5703 22.0331 13.3356 21.7166 14.1333 21.7166H25.31C26.5558 21.7166 27.5653 22.7262 27.5653 23.972C27.5653 24.4697 27.4037 24.9298 27.1308 25.3027Z" stroke="white" stroke-width="1.7496" stroke-miterlimit="10" stroke-linecap="round" stroke-linejoin="round"/>
<path d="M26.8828 25.5469L27.1264 25.3026" stroke="white" stroke-width="1.7496" stroke-miterlimit="10" stroke-linecap="round" stroke-linejoin="round"/>
<path d="M20.0445 16.4524C19.9813 16.3817 17.0381 13.043 17.0381 8.93528C17.0381 8.07449 17.1674 7.24753 17.3719 6.47763C18.1552 3.53289 20.0452 1.41744 20.0452 1.41744C20.0452 1.41744 21.9479 3.54725 22.7261 6.50777C22.9268 7.26933 23.0523 8.08577 23.0523 8.93528C23.0523 12.7288 20.5421 15.866 20.109 16.3794C20.0956 16.3944 20.0851 16.4072 20.076 16.4178C20.0557 16.4411 20.0452 16.4531 20.0452 16.4531" stroke="white" stroke-width="1.7496" stroke-miterlimit="10" stroke-linecap="round" stroke-linejoin="round"/>
<path d="M20.0177 16.369C20.0349 16.4186 20.0447 16.4464 20.0462 16.4517L20.047 16.4524C20.047 16.4524 15.6288 17.3741 12.033 15.2977C8.43716 13.2221 7.02539 8.93457 7.02539 8.93457C7.02539 8.93457 9.80247 8.3557 12.7442 9.14966" stroke="white" stroke-width="1.7496" stroke-miterlimit="10" stroke-linecap="round" stroke-linejoin="round"/>
<path d="M17.3695 6.4777C15.2186 4.31858 12.525 3.43147 12.525 3.43147C12.525 3.43147 11.9461 6.20864 12.74 9.15037C12.9475 9.92012 13.249 10.7005 13.6797 11.4463C15.7554 15.0421 20.0428 16.4531 20.0428 16.4531C20.0428 16.4531 20.0503 16.4185 20.0616 16.3525C20.0669 16.3794 20.0804 16.4531 20.0804 16.4531C20.0804 16.4531 24.3678 15.0421 26.4442 11.4463C26.8742 10.7005 27.1757 9.92012 27.3832 9.15037C28.1771 6.20781 27.5982 3.43147 27.5982 3.43147C27.5982 3.43147 24.8798 4.32692 22.7237 6.50777" stroke="white" stroke-width="1.7496" stroke-miterlimit="10" stroke-linecap="round" stroke-linejoin="round"/>
<path d="M20.1074 16.369C20.1059 16.3728 20.1053 16.3758 20.1044 16.3787C20.0865 16.4276 20.0781 16.4524 20.0781 16.4524C20.0781 16.4524 24.4972 17.3741 28.0929 15.2977C31.6887 13.2221 33.0997 8.93457 33.0997 8.93457C33.0997 8.93457 30.3235 8.3557 27.3809 9.14966" stroke="white" stroke-width="1.7496" stroke-miterlimit="10" stroke-linecap="round" stroke-linejoin="round"/>
</g>
</svg>
