<svg version="1.1" xmlns="http://www.w3.org/2000/svg" xmlns:xlink="http://www.w3.org/1999/xlink" width="700" height="700" viewBox="418,17.5,700,700"><defs><clipPath id="clip-1"><rect x="436.50196" y="36.10197" width="662.99608" height="662.99608" id="clip-1" fill="none" stroke="none" stroke-width="1" stroke-linecap="butt" stroke-dasharray=""/></clipPath><clipPath id="clip-2"><rect x="713.68163" y="59.02678" transform="scale(0.61162,0.61162)" width="1084" height="1084" id="clip-2" fill="none" stroke="none" stroke-width="1" stroke-linecap="butt" stroke-dasharray=""/></clipPath></defs><g id="document" fill="#ffffff" fill-rule="nonzero" stroke="#000000" stroke-width="0" stroke-linecap="butt" stroke-linejoin="miter" stroke-miterlimit="10" stroke-dasharray="" stroke-dashoffset="0" font-family="none" font-weight="none" font-size="none" text-anchor="none" style="mix-blend-mode: normal"><rect x="418" y="12.5" transform="scale(1,1.4)" width="700" height="500" id="Shape 1 1" vector-effect="non-scaling-stroke"/></g><g fill="none" fill-rule="nonzero" stroke="none" stroke-width="none" stroke-linecap="none" stroke-linejoin="none" stroke-miterlimit="10" stroke-dasharray="none" stroke-dashoffset="0" font-family="none" font-weight="none" font-size="none" text-anchor="none" style="mix-blend-mode: normal"><g><g id="stage"><g id="layer1 1"><g clip-path="url(#clip-1)" id="Group 1" stroke-linejoin="miter"><g id="Group 1"><g id="Group 1"><g clip-path="url(#clip-2)" id="Group 1"><path d="M511.60306,356.53339c0.75827,0.67733 1.7546,1.02562 2.76972,0.96821c1.01512,-0.0574 1.96583,-0.51579 2.64291,-1.27429c0.21988,-0.24615 22.1297,-24.77942 36.88407,-40.83573c6.78593,-7.48285 14.33763,-14.23366 22.5313,-20.14177c3.20391,-2.18282 6.52191,-4.19329 9.93986,-6.02287c5.28436,-2.95572 10.74754,-6.01165 15.46843,-10.3086c6.20635,-5.64942 10.94233,-12.59608 15.521,-19.31345c1.40109,-2.05534 2.79568,-4.10229 4.22403,-6.09491c2.35108,-3.2824 4.339,-5.86098 6.25495,-8.11477c0.67576,-0.79462 1.37212,-1.64262 2.09843,-2.52523c6.86935,-8.35831 15.30978,-18.64959 33.19424,-18.68341c-0.04696,3.10937 -0.00284,6.39853 0.15107,9.88453c0.09067,2.04827 1.77684,3.66268 3.82712,3.66424c0.05705,0 0.11416,-0.00093 0.17217,-0.00373c1.25792,-0.05524 2.40823,-0.72555 3.07647,-1.79272c2.59713,4.69377 7.0431,8.08375 12.25694,9.3457c-4.79616,-5.49603 -8.78099,-11.65024 -11.83326,-18.27543c-0.00665,-2.00819 0.02423,-3.93686 0.09265,-5.78601c0.07477,-0.36909 0.09099,-0.74765 0.04808,-1.12178c0.87816,-19.26958 5.63378,-29.69188 9.01936,-34.75279c6.18821,14.60161 15.03921,25.87014 39.14024,25.86928c0.07701,0 0.15791,-0.00276 0.23522,-0.00299c-3.87028,5.85813 -7.64933,15.44854 -3.53824,27.7812c0.15691,0.46247 0.40145,0.89037 0.72025,1.26032c0.15594,1.44752 1.12065,2.68076 2.48805,3.18059c1.3674,0.49983 2.90002,0.17946 3.9527,-0.82627c4.65896,-4.47434 9.80594,-8.411 15.34405,-11.7359c7.10482,-4.22305 15.74558,-4.53099 23.26503,-4.27453c8.79989,0.29951 17.77849,1.25513 26.55119,2.19015c20.46934,2.18451 37.74894,2.06844 55.56394,-5.57923c12.48845,-5.35928 25.12289,-10.40317 37.55337,-14.98934c17.14947,-6.32797 33.95273,-12.34431 49.94162,-17.88238l4.55809,-1.5911c6.34862,-2.2257 12.91338,-4.52724 19.4323,-6.30927c1.35712,-0.37159 2.71956,-0.73818 4.08732,-1.09976c8.88506,-2.37168 18.07239,-4.82392 26.41267,-9.53179c6.28773,-3.54816 10.11392,-7.424 11.69756,-11.8473c0.71044,-1.99292 -0.32775,-4.18464 -2.31984,-4.89741c-1.99209,-0.71276 -4.18502,0.32287 -4.90011,2.31414c-0.93502,2.61415 -3.63243,5.14968 -8.24576,7.75348c-7.49138,4.22866 -16.20045,6.55263 -24.62218,8.80079c-1.38145,0.36879 -2.75888,0.73944 -4.13227,1.11193c-6.77818,1.85322 -13.47214,4.20055 -19.94612,6.47028l-4.53096,1.58177c-16.03762,5.55393 -32.88855,11.58804 -50.08673,17.93288c-12.55397,4.63294 -25.31295,9.7255 -37.92306,15.13724c-16.34178,7.01403 -31.90675,7.11326 -51.81736,4.99139c-8.81758,-0.93965 -17.93661,-1.91118 -27.01354,-2.22008c-8.62761,-0.2976 -18.63578,0.11232 -27.44314,5.34715c-4.3099,2.57747 -8.39981,5.50613 -12.22811,8.75617c-2.57383,-13.56913 7.18016,-21.99251 7.64285,-22.38182c0.00881,-0.00734 0.01624,-0.01561 0.02498,-0.023c0.53113,-0.03425 1.10774,-0.06985 1.7103,-0.1071c3.13547,-0.19374 6.68833,-0.4137 8.66506,-0.72257c6.81282,-1.06138 12.90307,-2.5364 18.4383,-9.86027c2.13029,-2.81819 4.24553,-6.01447 5.29004,-10.27306c0.78482,-3.18624 0.97964,-6.48926 0.57482,-9.74567c1.955,-2.40502 5.05668,-7.03591 3.99829,-11.16825c-0.42866,-1.67629 -1.69783,-3.91605 -5.3078,-5.06914c-3.04842,-1.04496 -6.01665,-2.31064 -8.88112,-3.787c-4.37048,-4.60649 -9.50913,-8.41742 -15.18606,-11.26229c-15.50688,-7.7506 -32.24455,-2.90894 -40.47071,-0.52692c-1.42162,0.42132 -2.95652,0.19755 -4.19868,-0.61211c-6.79412,-4.47761 -13.91205,-5.94329 -19.04671,-3.91512c-2.53824,1.0024 -5.83096,3.30861 -7.10109,8.59861c-3.00563,12.51794 3.27344,21.63167 7.40914,26.0466c-4.11174,4.91745 -10.69378,16.09484 -12.25002,38.29823c-21.72966,-0.07295 -32.30272,12.79394 -39.43636,21.472c-0.69823,0.84893 -1.36742,1.66416 -2.01697,2.42791c-2.05632,2.41943 -4.16788,5.15617 -6.64625,8.61544c-1.46194,2.04135 -2.8911,4.13693 -4.32594,6.24096c-4.32974,6.35235 -8.80643,12.91994 -14.34635,17.96286c-4.07045,3.70449 -8.91774,6.41693 -14.05054,9.2875c-3.65699,1.96239 -7.20651,4.11878 -10.63338,6.45997c-8.63327,6.21975 -16.59033,13.3279 -23.74058,21.20778c-14.7918,16.09662 -36.73707,40.67105 -36.95704,40.9172c-0.67724,0.75832 -1.02546,1.75464 -0.96805,2.76973c0.05741,1.01509 0.51575,1.96579 1.27417,2.64292zM675.7471,153.97387c0.54294,-2.26219 1.66509,-2.94262 2.46255,-3.25709c0.72236,-0.26709 1.48842,-0.39629 2.25842,-0.38092c2.70587,0 6.2709,1.27196 9.75078,3.5669c3.17601,2.07056 7.10597,2.62817 10.73261,1.52283c7.10951,-2.05725 21.90138,-6.33832 34.72771,0.07298c10.2824,5.14027 24.30304,17.9975 20.78475,32.34661c-0.67386,2.74798 -2.07125,4.9765 -3.96096,7.47735c-3.54252,4.68729 -6.88203,5.87501 -13.50302,6.90738c-1.62481,0.25362 -5.13556,0.47077 -7.95563,0.64578c-1.67535,0.10296 -3.16634,0.19658 -4.07418,0.28174c-29.14287,2.7461 -35.37726,-8.13067 -42.16105,-26.35932l-0.40153,-1.05199l-0.80093,-0.60938l-0.01426,-0.01087l-0.06929,-0.05271c-0.44366,-0.33697 -10.82439,-8.40488 -7.77597,-21.09928z" id="CompoundPath 1" fill="#f2f2f2" stroke="#000000" stroke-width="8" stroke-linecap="square" stroke-dasharray="0,0"/><path d="M570.98192,322.08839c0.92823,-1.79962 2.74359,-2.96969 4.76592,-3.07182c9.99316,-0.41652 23.57197,-2.01701 31.50698,-7.27147c11.24276,-7.44367 24.1112,-24.03253 24.65309,-24.73447c0.83783,-1.08402 1.03345,-2.53276 0.51314,-3.80017c-0.52032,-1.26741 -1.67747,-2.16079 -3.0353,-2.34341c-1.35783,-0.18262 -2.7099,0.37329 -3.54659,1.45818c-0.12543,0.1619 -12.62228,16.2772 -22.81672,23.0273c-4.97079,3.2908 -15.02861,5.47908 -27.59474,6.00413c-4.76017,0.21991 -9.04341,2.95703 -11.24269,7.18441c-2.73297,5.23572 -8.38713,14.61308 -15.55556,18.59558c-2.4241,1.34588 -4.64795,2.36235 -6.60975,3.25806c-8.59677,3.92632 -13.51141,6.83996 -14.54473,21.05898c-0.15346,2.11156 1.43381,3.94775 3.54536,4.10136c0.09453,0.0075 0.18905,0.0103 0.28177,0.0103c2.00792,-0.00201 3.67407,-1.55306 3.81959,-3.5557c0.75536,-10.38069 3.10553,-11.4542 10.08306,-14.64021c2.09096,-0.95563 4.46078,-2.03761 7.1479,-3.53043c8.47044,-4.70596 14.80588,-14.42493 18.62928,-21.75064z" id="Path 1" fill="#f2f2f2" stroke="#000000" stroke-width="8" stroke-linecap="square" stroke-dasharray="0,0"/><path d="M545.15979,348.90534c-1.53185,-0.41009 -3.10758,0.49275 -3.52846,2.02167c-0.10303,0.38096 -0.96313,3.88794 0.67389,9.62067c0.2817,0.98837 1.06949,1.75125 2.0664,2.00104c0.99691,0.2498 2.05135,-0.05147 2.76581,-0.79023c0.71447,-0.73876 0.98032,-1.80268 0.69734,-2.79068c-1.1615,-4.06582 -0.66919,-6.45344 -0.64298,-6.57511c0.38973,-1.52246 -0.51532,-3.07574 -2.032,-3.48738z" id="Path 1" fill="#f2f2f2" stroke="#000000" stroke-width="8" stroke-linecap="square" stroke-dasharray="0,0"/><path d="M555.89993,344.45491h-0.00194c-1.58695,0.0008 -2.87307,1.28735 -2.87333,2.8743c0,0.10765 0.0056,2.7152 0.47455,8.91965c0.11278,1.49876 1.36101,2.65768 2.864,2.65908c0.07205,0 0.14596,-0.0028 0.21896,-0.00843c1.58331,-0.11943 2.77004,-1.49974 2.65069,-3.08305c-0.44832,-5.93955 -0.45775,-8.46474 -0.45775,-8.48912c-0.00228,-1.58653 -1.28865,-2.87167 -2.87518,-2.87243z" id="Path 1" fill="#f2f2f2" stroke="#000000" stroke-width="8" stroke-linecap="square" stroke-dasharray="0,0"/><path d="M641.69702,480.00274c1.93469,-3.56033 3.76262,-6.92325 6.11833,-9.54015c1.90651,-2.06315 4.15222,-3.78461 6.63979,-5.08976c14.45205,-7.81616 31.66149,-8.27289 48.30464,-8.71466c3.18971,-0.08515 6.35889,-0.16942 9.48965,-0.30324c18.5441,-0.78999 35.90791,-3.61653 51.60764,-8.40113c23.23887,-7.08332 37.73398,-17.51269 44.31378,-31.88241c7.31354,-15.96837 7.43987,-32.02374 0.35565,-45.20759c-4.07235,-7.58123 -10.34795,-14.56906 -18.65078,-20.7689c-3.66424,-2.61924 -7.49788,-4.993 -11.47577,-7.10568c-4.00026,-2.23603 -7.77782,-4.34756 -11.16877,-6.97663c-12.07009,-9.35955 -17.96566,-22.87941 -16.17425,-37.09379c4.31941,-34.2719 36.21869,-39.77995 54.84796,-40.01211l1.49658,-0.0187c23.18081,-0.28644 39.92976,-0.49324 60.19879,-10.32921c15.47134,-7.50732 36.00434,-19.87124 52.50336,-29.80553l6.46748,-3.88984c3.15958,-1.85969 6.74761,-2.86778 10.41339,-2.92574c7.15219,-0.16467 20.78706,-2.79192 36.86317,-17.33911c-0.07276,1.28387 0.71882,2.45895 1.93597,2.87389c9.43533,3.19818 14.88913,3.62495 17.12796,3.62495c0.38405,0.0041 0.76805,-0.01276 1.15026,-0.05051c1.56381,-0.18628 2.68671,-1.59601 2.51854,-3.16188c-0.16817,-1.56586 -1.56481,-2.705 -3.13251,-2.55497c-0.04678,0.0047 -4.92871,0.38655 -15.81859,-3.30297c-0.28946,-0.09366 -0.59204,-0.14044 -0.89627,-0.13858c1.17464,-1.14911 2.36006,-2.36333 3.55626,-3.64268c0.26426,-0.28363 0.52979,-0.57418 0.79525,-0.86438c5.238,1.24161 10.60424,1.86066 15.98736,1.84431c2.8341,0 4.65732,-0.16851 4.83794,-0.18628c2.10487,-0.2064 3.64496,-2.07844 3.44177,-4.18363c-0.20319,-2.10519 -2.07288,-3.64813 -4.17837,-3.44815c-6.58638,0.45046 -13.20231,-0.1636 -19.59327,-1.81856c-1.70246,-0.34768 -3.47156,0.07472 -4.8333,1.15404c-0.69263,0.78245 -1.38055,1.53964 -2.06375,2.27157c-16.91462,18.12669 -30.9895,21.09926 -37.87437,21.25743c-4.99516,0.08859 -9.88175,1.47247 -14.18161,4.0162l-6.47871,3.89638c-16.36608,9.85466 -36.73534,22.11937 -51.89498,29.47604c-18.72847,9.08812 -34.75952,9.28653 -56.94726,9.55983l-1.49664,0.01874c-35.94442,0.44924 -58.67409,17.47805 -62.35992,46.721c-1.70455,13.16975 2.31097,26.43913 11.03155,36.45409c-6.61385,0.04489 -12.93635,2.72719 -17.56483,7.45183c0.38055,-0.09206 0.75536,-0.1849 1.13343,-0.27744c3.04662,-0.63768 12.18939,-1.87302 26.56538,2.01148l-0.00179,-0.00459c3.24281,2.19849 6.59578,4.22995 10.0458,6.08644c3.68317,1.94943 7.23377,4.13963 10.62868,6.55636c7.3997,5.52492 12.94616,11.66576 16.48502,18.25391c5.92081,11.01901 5.7168,24.65216 -0.5728,38.3873c-5.61388,12.25916 -18.56004,21.33325 -39.57784,27.73984c-15.08105,4.59557 -31.80189,7.31264 -49.6983,8.07545c-3.09053,0.13103 -6.21942,0.21432 -9.36799,0.2976c-17.54356,0.46611 -35.68423,0.94812 -51.74703,9.63568c-3.25911,1.72104 -6.19887,3.98837 -8.69139,6.70336c-2.96233,3.29083 -5.09532,7.21528 -7.15722,11.00963c-1.12126,2.06288 -2.17983,4.01061 -3.33287,5.79545c-3.60124,5.65933 -7.70182,10.98495 -12.25266,15.91312c-8.12313,8.70063 -22.00247,17.31991 -39.73135,21.62058c-6.3453,1.53925 -12.65669,3.23395 -18.88642,5.19207c-4.35363,1.36839 -8.67263,2.86266 -12.89914,4.58688c-2.70797,1.08397 -5.35741,2.30882 -7.93745,3.66952c-2.74989,1.54905 -5.30092,3.4272 -7.59676,5.59297c-1.76693,1.5842 -4.0832,3.35087 -5.13915,5.53508c-0.57482,1.189 0.55466,1.97168 1.57886,2.24772c2.38154,0.64197 3.98788,-1.25685 5.67201,-2.58492c0.81172,-0.64018 1.64762,-1.24972 2.4989,-1.83622c2.64464,-1.80555 5.41261,-3.42347 8.28355,-4.84186c4.15548,-2.05821 8.4619,-3.79645 12.8818,-5.19958c5.7954,-1.83956 11.7278,-3.21576 17.74119,-4.11562c1.5587,-0.23802 3.1214,-0.44778 4.6881,-0.62928c16.17323,-1.8803 31.54449,-10.18037 44.45036,-24.00536c4.86128,-5.25958 9.24187,-10.94387 13.08928,-16.98479c1.31032,-2.02912 2.48878,-4.19773 3.6287,-6.29432z" id="Path 1" fill="#f2f2f2" stroke="#000000" stroke-width="8" stroke-linecap="square" stroke-dasharray="0,0"/><path d="M979.14926,213.0776c1.55404,0.24617 3.01734,-0.80245 3.2837,-2.35316c0.26636,-1.55071 -0.76315,-3.02752 -2.31027,-3.31402c-0.16194,-0.03184 -4.02278,-0.81802 -8.44047,-5.62978c-1.07421,-1.16713 -2.89072,-1.2437 -4.05935,-0.17113c-1.16863,1.07257 -1.24775,2.88898 -0.17681,4.05911c5.75708,6.27276 11.1117,7.3107 11.7032,7.40899z" id="Path 1" fill="#f2f2f2" stroke="#000000" stroke-width="8" stroke-linecap="square" stroke-dasharray="0,0"/><path d="M527.18222,552.24108v-0.00367c-0.00179,-0.0104 -0.00754,-0.02018 -0.00963,-0.03054c-0.01277,-0.04416 -0.02524,-0.08325 -0.03731,-0.1177c-0.3488,-0.82639 -1.24667,-1.27655 -2.11753,-1.06164c-0.61634,0.18487 -1.10821,0.65153 -1.32524,1.25729c0.11956,0.41992 0.20284,0.84933 0.24893,1.2835c0.06555,0.4411 0.11602,0.88421 0.16306,1.32759c0.09124,0.86144 0.23697,1.71242 0.34135,2.57106c0.24441,1.92058 0.38532,3.85291 0.42213,5.78863c0.07473,5.62799 -1.20914,12.96848 -8.11976,13.38344c-2.54781,0.15302 -5.20903,-0.50269 -7.73887,-0.77928c-2.97091,-0.32481 -5.95011,-0.58306 -8.93604,-0.71884c-5.97447,-0.34075 -11.96827,0.02331 -17.85757,1.08468c-4.4168,0.84942 -9.23953,1.8416 -13.657,2.53042c-7.4467,1.06463 -15.03764,2.40084 -22.39743,1.5565c2.04079,-1.34028 4.38664,-2.5807 6.31035,-3.80048c6.71666,-3.92109 14.26714,-7.40078 21.12849,-11.51289c11.66378,-6.95576 22.82518,-14.91165 33.59025,-22.97467c25.64912,-19.41104 50.6606,-39.62512 75.03444,-60.64222c16.23461,-13.60176 32.10524,-28.82056 47.54366,-43.02879c15.86341,-13.77751 32.974,-26.04955 51.11066,-36.65751c27.24226,-16.71363 56.9635,-30.15027 88.22943,-15.17957l0.36826,-0.67243c-4.71286,-2.58894 -9.6987,-4.64642 -14.86581,-6.13458c-26.61451,-7.71331 -53.48776,4.36801 -76.38139,17.23622c-18.69954,10.39872 -36.60797,22.31978 -52.90193,36.22223c-8.14209,6.96529 -15.81949,14.40657 -23.78822,21.49979c-32.0084,28.27236 -64.91186,55.50386 -98.71039,81.69451c-8.44544,6.5281 -17.01205,12.89927 -25.91195,18.77103c-9.92432,6.81749 -20.8639,11.88462 -30.94911,18.45544c-16.68862,9.82329 -4.8573,13.27194 7.5654,12.00058c8.46388,-0.49512 16.66876,-2.65275 24.94039,-4.34953c5.24022,-1.17134 10.58001,-1.84142 15.94717,-2.00118c5.73233,-0.06962 11.18766,1.18006 16.85295,1.7844c4.02505,0.4293 8.75715,0.10837 12.21732,-2.19328c1.91614,-1.3781 3.32299,-3.35095 4.00161,-5.61153c1.20212,-3.54771 1.2558,-7.44192 1.00673,-11.14242c-0.04668,-0.69453 -0.86026,-8.18445 -1.31741,-9.83454zM442.13033,579.47879c0.06213,0.02342 0.12108,0.05455 0.17546,0.09265c-0.1317,-0.05641 -0.20323,-0.09857 -0.17546,-0.09265z" id="CompoundPath 1" fill="#f2f2f2" stroke="#000000" stroke-width="8" stroke-linecap="square" stroke-dasharray="0,0"/><path d="M973.45307,249.68471c-6.87083,-0.75064 -16.99133,-1.03797 -25.49825,5.09159c-10.32455,7.4371 -15.64075,21.28643 -17.17384,31.76631c-0.44177,3.01941 -0.83397,6.01165 -1.22328,8.9824c-1.47695,11.28013 -2.87341,21.93502 -6.78195,32.58434c-5.43978,14.81896 -13.2681,25.90911 -23.26787,32.96156c-11.45143,8.07728 -23.92302,12.82629 -36.06612,13.73417c-10.59031,0.78716 -21.4137,-1.59581 -31.88516,-3.9029c-3.70356,-0.81616 -7.53256,-1.66039 -11.32131,-2.35955c-2.07995,-0.37934 -4.07437,0.99685 -4.45789,3.07603c-0.38352,2.07918 0.98865,4.07636 3.06706,4.46407c3.65776,0.67479 7.42214,1.50499 11.06209,2.30711c9.48125,2.08906 19.23949,4.23985 29.2402,4.23985c1.61544,0 3.23838,-0.05615 4.866,-0.17781c13.52739,-1.01181 27.32991,-6.23816 39.91478,-15.1157c11.29604,-7.96683 20.05942,-20.2756 26.04578,-36.58554c4.20338,-11.44865 5.65222,-22.51443 7.18719,-34.2298c0.38376,-2.93235 0.77121,-5.8862 1.20738,-8.86817c1.30567,-8.92715 5.68688,-20.61722 14.06835,-26.65602c4.91281,-3.53882 11.13507,-4.68076 20.18574,-3.68949c12.20485,1.329 20.68556,-0.38471 25.19689,-5.10476c2.04038,-2.1349 4.26796,-5.99383 3.29457,-12.2582c-2.30901,-14.8695 -22.85699,-16.66936 -23.73024,-16.73864l-0.19374,-0.01026c-56.24809,-1.61455 -63.65901,54.24609 -66.45747,75.26953c-0.21436,1.60704 -0.41374,3.22532 -0.61402,4.8492c-1.05668,8.55933 -2.14897,17.40876 -5.56143,25.11916c-19.0158,42.96973 -89.70854,21.25366 -97.70725,18.63582c-1.30203,-0.42698 -2.73296,-0.1266 -3.75337,0.78792c-1.02042,0.91452 -1.47516,2.30412 -1.19282,3.64497c0.28234,1.34085 1.25885,2.42907 2.56141,2.85444c39.08458,12.79079 90.59021,14.49235 107.1042,-22.82046c3.87105,-8.74738 5.0335,-18.17066 6.15851,-27.28217c0.19748,-1.59954 0.39406,-3.19348 0.60461,-4.77617c4.33631,-32.57217 14.88921,-69.81293 58.51223,-68.62145c1.16337,0.12355 15.38336,1.83073 16.69276,10.26556c0.59714,3.8393 -0.80118,5.30311 -1.26073,5.78329c-2.65812,2.78257 -9.51682,3.79624 -18.82299,2.77977z" id="Path 1" fill="#f2f2f2" stroke="#000000" stroke-width="8" stroke-linecap="square" stroke-dasharray="0,0"/><path d="M662.4903,246.35551c-0.75754,-0.67831 -1.75355,-1.02784 -2.76884,-0.97167c-1.01529,0.05617 -1.96667,0.51343 -2.64476,1.27117c-15.36652,17.16354 -21.88354,32.56003 -19.36955,45.76168c3.64361,19.13 15.35898,27.34302 29.35809,34.91209c1.63793,7.278 9.53549,32.5516 42.59908,50.65859c1.85727,1.01677 4.18714,0.33542 5.20391,-1.52185c1.01677,-1.85727 0.33542,-4.18714 -1.52185,-5.20391c-34.61445,-18.95593 -38.90298,-45.85434 -39.06679,-46.97653l-0.26863,-1.93932l-1.72784,-0.91911c-13.84187,-7.36315 -23.88468,-13.8568 -27.04344,-30.44384c-2.04415,-10.7307 3.8608,-23.92391 17.55013,-39.21372c0.67827,-0.75755 1.02778,-1.75355 0.97161,-2.76882c-0.05617,-1.01527 -0.51341,-1.96664 -1.27111,-2.64474z" id="Path 1" fill="#f2f2f2" stroke="#000000" stroke-width="8" stroke-linecap="square" stroke-dasharray="0,0"/><path d="M723.43408,173.83394c1.4279,0.45876 2.91888,0.69088 4.41866,0.68789c3.07268,0 6.32331,-0.93876 9.71143,-2.81066c1.38822,-0.76847 1.89143,-2.51629 1.12436,-3.90528c-0.76707,-1.38899 -2.51438,-1.89397 -3.90415,-1.12829c-3.59687,1.98609 -6.83152,0.54581 -9.6237,-0.10352c-2.1463,-0.58292 -4.11087,-1.69784 -5.7119,-3.24156c-0.68853,-1.42747 -2.40233,-2.02859 -3.83168,-1.34398c-1.42935,0.68462 -2.03516,2.39677 -1.35446,3.82799c0.11606,0.24429 2.91645,6.00604 9.17144,8.01741z" id="Path 1" fill="#f2f2f2" stroke="#000000" stroke-width="8" stroke-linecap="square" stroke-dasharray="0,0"/><path d="M1084.06706,539.89266c-12.97046,-10.98904 -17.19441,-22.88598 -20.27838,-31.5735c-1.8354,-5.17117 -3.28613,-9.2557 -6.17634,-11.5684c-3.77755,-3.02131 -5.52593,-3.22061 -9.55613,-3.02593c-2.91268,0.14503 -7.78622,0.38185 -18.62832,-1.28604c-10.99187,-1.69126 -21.85364,-9.70489 -31.43684,-16.77605c-1.4713,-1.08568 -2.91174,-2.14802 -4.31944,-3.1635c-3.20751,-2.31554 -6.47215,-4.78932 -9.63005,-7.18161c-9.1321,-6.92045 -18.5759,-14.07492 -28.98653,-19.30406c-5.97046,-2.99879 -12.11032,-3.53702 -18.04805,-4.05832c-3.14656,-0.20511 -6.27663,-0.61277 -9.37075,-1.22045l-1.02207,-0.22469c-3.61184,-0.79271 -7.02434,-1.54145 -10.4359,-2.53175c-9.99413,-2.89954 -20.43194,-7.04021 -32.8455,-13.03221c-16.33801,-7.88638 -33.49785,-17.72981 -54.00464,-30.97827c-1.77811,-1.14731 -4.14955,-0.63683 -5.2981,1.14048c-1.14854,1.77731 -0.6397,4.14911 1.13682,5.29888c20.77919,13.42533 38.20292,23.41666 54.83301,31.44437c12.80945,6.18198 23.62632,10.46864 34.04254,13.49085c3.65492,1.06045 7.35288,1.8719 10.92822,2.65621l1.01741,0.22373c3.41617,0.68128 6.87309,1.1393 10.34881,1.37115c5.45947,0.47925 10.61751,0.93128 15.27764,3.2712c9.7817,4.91374 18.93998,11.85293 27.79695,18.56373c3.19255,2.41853 6.49268,4.91938 9.77325,7.28737c1.38612,1.00053 2.80505,2.04787 4.25389,3.11672c10.29554,7.59621 21.96503,16.20605 34.82316,18.1837c11.60868,1.78769 16.96983,1.52656 20.16988,1.36649c2.54483,-0.12256 2.543,-0.12355 4.39052,1.35435c1.18588,0.94906 2.42697,4.44581 3.74104,8.14747c3.18504,8.9721 7.9996,22.53221 22.54713,34.85781c9.79572,8.29912 11.40466,16.25383 11.49265,20.25693c0.0445,1.42843 -0.11914,2.85573 -0.48578,4.23702c-6.01727,-7.04118 -19.89468,-19.42857 -32.34195,-26.89655c-23.00487,-13.80349 -68.14691,-39.35692 -112.00205,-55.40106c-39.12857,-14.31451 -51.55337,-15.91873 -74.10804,-18.82956c-5.23385,-0.67576 -11.16597,-1.44137 -18.07142,-2.45967c-34.59854,-5.10473 -67.50863,-23.39419 -67.8371,-23.5786c-1.84641,-1.03617 -4.18321,-0.37934 -5.21938,1.46707c-1.03617,1.84641 -0.37934,4.18321 1.46707,5.21938c1.38895,0.77969 34.43567,19.16091 70.46995,24.47718c6.97383,1.02857 12.94336,1.79982 18.20902,2.47934c22.00805,2.84059 34.13057,4.4046 72.45608,18.42613c43.258,15.82606 87.91899,41.11089 110.6917,54.77395c14.64772,8.78866 29.6951,23.57301 32.12573,27.46098c0.90375,1.54366 2.5523,2.49872 4.34098,2.51489c0.2392,-0.00037 0.47811,-0.01695 0.71507,-0.04961c2.85187,-0.39682 5.19645,-3.06805 6.43284,-7.32758c2.396,-8.25983 0.14038,-21.16668 -13.37861,-32.61999z" id="Path 1" fill="#f2f2f2" stroke="#000000" stroke-width="8" stroke-linecap="square" stroke-dasharray="0,0"/><path d="M672.23624,576.67324c-1.46037,-4.26913 -3.14532,-7.30227 -4.71858,-10.8976l-19.99692,-45.38741h-18.53701v2.24707c8.53827,0.44942 10.1109,1.34827 10.1109,12.80747c0,5.84178 -0.5616,27.74917 -1.6848,42.12925c-0.67441,9.09995 -3.0337,10.67261 -9.43716,11.79585v2.24707h23.36788v-2.24707c-8.20107,0 -10.22379,-3.70696 -10.22379,-12.80688c0,-10.22375 0.78663,-27.41257 0.89885,-45.72461h0.22495c6.62849,15.50394 14.04293,32.01833 17.75054,39.43281c3.59463,7.19005 6.62841,15.84114 8.65046,20.22252h1.57266c7.52725,-18.64929 17.63823,-38.87121 26.62593,-58.30709h0.22443c0.67382,16.51439 0.67382,33.81602 1.12324,50.66762c0.11281,4.71855 -1.79705,6.06622 -9.88595,6.51563v2.24707h28.31083v-2.24707c-6.96565,-0.44942 -9.54934,-1.46045 -9.66156,-5.95403c-0.33721,-20.33474 -1.12383,-45.0502 -1.12383,-49.43158c0,-8.65049 1.90987,-10.78537 10.78537,-11.34699v-2.24707h-17.30104z" id="Path 1" fill="#f2f2f2" stroke="#000000" stroke-width="8" stroke-linecap="square" stroke-dasharray="0,0"/><path d="M788.51503,522.6353c6.96562,0 11.00978,2.13486 10.67317,10.11098l-1.12384,31.4567c-0.56164,15.05395 -5.168,23.81724 -20.89577,23.81724c-14.1557,0 -22.469,-8.20167 -22.469,-19.77309v-35.50083c0,-8.53831 1.34823,-10.11098 12.02085,-10.11098v-2.24707h-30.44571v2.24707c8.08889,0 9.43713,1.57266 9.43713,10.11098v35.27643c0,16.62661 10.33597,24.49107 28.87245,24.49107c22.91841,0 27.18757,-13.25686 27.52478,-26.28873l0.89825,-26.28873c0.44942,-14.15511 1.79765,-16.40219 9.66212,-17.301v-2.24707h-24.15444z" id="Path 1" fill="#f2f2f2" stroke="#000000" stroke-width="8" stroke-linecap="square" stroke-dasharray="0,0"/><path d="M889.85259,583.18888l-18.53704,-27.412c3.25812,-0.78603 16.62717,-4.26913 16.62717,-16.96378c0,-12.91966 -12.24524,-18.42486 -30.33286,-18.42486h-21.79521v2.24707c6.85344,0 8.20107,1.57266 8.20107,10.11098c0.11281,15.72837 -0.33661,29.88403 -0.33661,46.51065c0,8.53831 -1.34823,10.11098 -9.43713,10.11098v2.24707h28.87248v-2.24707c-8.42551,0 -9.77375,-1.57266 -9.77375,-10.11098v-21.79455h9.77375l19.32371,29.99569c2.47147,3.81974 3.5947,4.15694 4.60576,4.15694h12.47023v-2.24707c-3.93198,-0.00002 -6.74065,-1.79712 -9.66159,-6.17905zM853.34072,554.76585v-25.83931c0,-4.4936 1.12324,-5.84182 7.41444,-5.84182c8.65053,0 16.8522,5.16797 16.8522,15.50334c-0.00002,12.80747 -7.19007,16.17779 -24.26664,16.17779z" id="CompoundPath 1" fill="#f2f2f2" stroke="#000000" stroke-width="8" stroke-linecap="square" stroke-dasharray="0,0"/><path d="M957.03641,554.54146v-0.22503c7.63947,-2.02203 17.97544,-4.83076 17.97544,-17.30103c0,-9.99873 -9.09996,-16.62717 -27.74922,-16.62717c-4.60636,0 -6.96505,0.22499 -10.89757,0.22499c-4.4936,0 -9.43656,-0.22499 -14.38013,-0.22499v2.24707c7.41507,0 8.76331,1.57266 8.76331,10.11098c0,8.76273 -0.67441,34.82707 -0.67441,46.51065c0,8.53831 -1.34827,10.11098 -8.87493,10.11098v2.24707h16.62662c2.13486,0 4.49415,0.11221 6.74062,0.22439c2.35929,0.11281 4.49415,0.22503 6.06681,0.22503c12.02085,0 28.19863,-3.59534 28.19863,-18.42426c-0.00001,-13.70628 -10.33597,-16.62721 -21.79518,-19.09868zM939.73538,530.05038c0,-5.168 2.02264,-7.41507 7.97668,-7.41507c12.02081,0 17.63823,4.71858 17.63823,16.06557c0,9.09991 -5.16801,14.15511 -18.08766,14.15511c-6.51563,0 -7.52725,-0.33721 -7.52725,-4.38134zM949.6219,589.81733c-8.76273,0 -9.88655,-0.33664 -9.88655,-5.05519v-22.58121c0,-5.61743 0.67441,-6.62845 7.07783,-6.62845c14.04293,0 22.35681,4.94298 22.35681,17.75045c0.00001,10.67258 -6.29122,16.5144 -19.5481,16.5144z" id="CompoundPath 1" fill="#f2f2f2" stroke="#000000" stroke-width="8" stroke-linecap="square" stroke-dasharray="0,0"/></g></g></g></g><path d="M455,579" id="Path 1" fill="none" stroke="#000000" stroke-width="1" stroke-linecap="round" stroke-linejoin="round" stroke-dasharray=""/></g></g></g></g></svg>