<?xml version="1.0" encoding="UTF-8"?>
<svg version="1.1" xmlns="http://www.w3.org/2000/svg" width="500" height="500">
<path d="M0 0 C2.70833333 0.53125 2.70833333 0.53125 6.25 -0.1875 C14.37723416 -1.26005321 20.19021757 1.44936915 27 5.625 C27.93610107 6.1806665 27.93610107 6.1806665 28.89111328 6.74755859 C31.93083214 8.7160183 33.35748071 9.91811719 34.44921875 13.41796875 C34.54043059 18.72930431 33.53801973 22.78336975 30.625 27.25 C27.32766018 30.54733982 24.48895654 31.46950143 19.9375 32.0625 C16.56931781 32.70254002 16.56931781 32.70254002 14.25 35.05859375 C13.30599538 37.20057219 13.30599538 37.20057219 12.5 40.375 C13.16644531 39.941875 13.83289063 39.50875 14.51953125 39.0625 C23.18108972 33.82922271 29.29217448 33.78754939 39.0625 34.875 C55.02209698 36.50865953 67.44133877 34.69210461 82.5 29.375 C83.65757812 28.9728125 84.81515625 28.570625 86.0078125 28.15625 C95.19540578 24.96056538 104.35147227 21.68058832 113.5 18.375 C116.99702362 17.11333241 120.49412061 15.85187014 123.99145508 14.59106445 C126.0389086 13.85206683 128.08568599 13.11119162 130.1315918 12.36791992 C135.06077097 10.58306248 140.00086386 8.82962581 144.95703125 7.12109375 C146.40493042 6.61920532 146.40493042 6.61920532 147.88208008 6.10717773 C150.5 5.375 150.5 5.375 154.5 5.375 C153.9376049 8.63689156 153.0859495 10.28634848 150.5 12.375 C149.51 12.705 148.52 13.035 147.5 13.375 C150.48646769 15.36597846 153.09687262 16.31624926 156.5 17.375 C155.84 18.695 155.18 20.015 154.5 21.375 C152.52 21.375 150.54 21.375 148.5 21.375 C149.82 21.705 151.14 22.035 152.5 22.375 C152.5 23.695 152.5 25.015 152.5 26.375 C151.5 27.375 151.5 27.375 148.4375 27.4375 C147.468125 27.416875 146.49875 27.39625 145.5 27.375 C145.5 28.695 145.5 30.015 145.5 31.375 C143 33.125 143 33.125 140.5 34.375 C139.84 33.715 139.18 33.055 138.5 32.375 C139.16 32.045 139.82 31.715 140.5 31.375 C139.51 30.385 138.52 29.395 137.5 28.375 C136.82195312 28.64054687 136.14390625 28.90609375 135.4453125 29.1796875 C134.51460937 29.53289062 133.58390625 29.88609375 132.625 30.25 C131.72007812 30.59804687 130.81515625 30.94609375 129.8828125 31.3046875 C127.10766279 32.18273718 124.70677519 32.65555162 121.85546875 33.0859375 C115.34180106 34.331341 110.25912504 37.6652472 104.6875 41.125 C102.56752439 42.3998666 100.4451476 43.67074935 98.3203125 44.9375 C97.31387695 45.53820312 96.30744141 46.13890625 95.27050781 46.7578125 C82.1181544 54.435041 69.90489577 56.63219967 54.9140625 58.0546875 C46.26218084 58.98773356 36.96798917 60.19269398 30.875 66.9375 C26.79528948 72.23169082 26.7754202 77.92960993 27.5 84.375 C29.47032567 90.90285467 32.32710975 95.0081196 38.3203125 98.2421875 C39.39925781 98.80292969 39.39925781 98.80292969 40.5 99.375 C48.93042105 104.43325263 56.52481613 110.61839144 59.5 120.375 C60.74859049 128.81173764 59.28990553 135.34899062 54.5 142.375 C45.25254116 154.74593563 29.8453148 157.28522606 15.5 159.375 C8.58903905 160.28002753 1.67168466 161.13349618 -5.25683594 161.89306641 C-17.8502507 162.78912228 -17.8502507 162.78912228 -28.6484375 168.42578125 C-29.05320312 169.17214844 -29.45796875 169.91851562 -29.875 170.6875 C-30.57109375 171.88632812 -30.57109375 171.88632812 -31.28125 173.109375 C-31.6834375 173.85703125 -32.085625 174.6046875 -32.5 175.375 C-41.65128348 190.32209636 -54.53180844 195.26119404 -70.88671875 199.19921875 C-80.29557795 201.48472557 -80.29557795 201.48472557 -88.5 206.375 C-89.49 206.375 -90.48 206.375 -91.5 206.375 C-89.06676388 200.75797732 -84.51079384 197.7697767 -79.0546875 195.2421875 C-74.38921195 193.47348483 -69.67234744 192.14326557 -64.83422852 190.93115234 C-53.84225806 188.1615867 -46.18764886 184.76795405 -39.5 175.375 C-38.16101469 173.08342229 -36.91242216 170.75798445 -35.66796875 168.4140625 C-32.38935127 162.6901885 -27.52470238 159.60258057 -21.5 157.375 C-13.3537987 155.61485361 -5.02666644 154.82140982 3.25 153.9375 C23.47336801 151.91782099 23.47336801 151.91782099 42.2421875 144.58203125 C44.5 143.375 44.5 143.375 46.5 143.375 C46.78617188 142.78976562 47.07234375 142.20453125 47.3671875 141.6015625 C48.05950853 140.24079359 48.78648364 138.89613319 49.5703125 137.5859375 C52.66384173 132.20090514 53.44179638 127.52610763 52.5 121.375 C50.57373073 114.69325347 46.14408189 110.22835159 40.5 106.375 C35.32580996 103.57050204 30.32187412 101.36104715 24.5 100.375 C24.87125 99.6015625 24.87125 99.6015625 25.25 98.8125 C25.58292827 95.56644936 24.24002817 93.82119719 22.5078125 91.15625 C19.45685668 85.76386296 19.8621213 78.9272236 20.92578125 73.00390625 C22.95841741 65.80862366 27.40567765 59.90048 33.875 56.0625 C42.49440678 52.29254751 52.81464812 51.61989944 62.09716797 50.6628418 C80.1253055 48.77579587 94.19200282 41.34515327 109.47265625 31.94921875 C115.96328622 27.99496508 121.32933374 25.65985659 128.93359375 24.7890625 C133.65139264 24.02789556 136.3305944 21.77828672 139.375 18.125 C139.931875 17.25875 139.931875 17.25875 140.5 16.375 C134.48748496 17.55966626 128.8923352 19.17674833 123.1953125 21.421875 C121.63526519 22.02305987 120.07520618 22.62421439 118.51513672 23.2253418 C117.31531158 23.69174576 117.31531158 23.69174576 116.09124756 24.16757202 C89.54502891 34.4731443 89.54502891 34.4731443 77.51147461 37.79052734 C76.09262293 38.202802 74.68988398 38.67261569 73.30297852 39.18212891 C63.66862546 42.4165256 53.70998813 41.59560154 43.6875 41.375 C40.01434805 41.2949209 36.34166807 41.23516949 32.66796875 41.1875 C31.83661911 41.16260498 31.00526947 41.13770996 30.14872742 41.11206055 C25.15469137 41.04900834 21.83766423 41.61478105 17.5 44.375 C16.448125 45.48875 16.448125 45.48875 15.375 46.625 C14.75625 47.2025 14.1375 47.78 13.5 48.375 C10.48188578 48.19746387 9.66264785 47.53764785 7.5 45.375 C7.26953125 42.84375 7.26953125 42.84375 7.3125 39.875 C7.31894531 38.8953125 7.32539063 37.915625 7.33203125 36.90625 C7.5 34.375 7.5 34.375 8.5 32.375 C7.46875 32.2925 6.4375 32.21 5.375 32.125 C-0.31902255 31.02293112 -3.33814475 28.87318177 -6.875 24.3125 C-8.5 21.375 -8.5 21.375 -8.5 18.375 C-9.16 18.375 -9.82 18.375 -10.5 18.375 C-12.56316982 30.36184615 -12.77394354 39.00469738 -8.5 50.375 C-12.89158329 48.9111389 -13.37947433 46.39668662 -15.5 42.375 C-15.995 43.365 -15.995 43.365 -16.5 44.375 C-18.48 43.88 -18.48 43.88 -20.5 43.375 C-20.5 42.055 -20.5 40.735 -20.5 39.375 C-21.8802121 39.75225797 -23.25400473 40.15301131 -24.625 40.5625 C-25.39070313 40.78292969 -26.15640625 41.00335938 -26.9453125 41.23046875 C-33.57303137 44.19976788 -37.43822953 49.58109445 -41.5625 55.3125 C-43.52917754 58.00944193 -45.5045516 60.69926164 -47.5 63.375 C-47.91499756 63.93445313 -48.32999512 64.49390625 -48.75756836 65.0703125 C-51.69999757 68.83776067 -54.82672876 71.10810248 -58.9375 73.5 C-67.50083597 78.21977336 -67.50083597 78.21977336 -74.5625 84.8125 C-77.04771631 87.85575444 -79.72021698 90.59521698 -82.5 93.375 C-83.85555293 95.02364545 -85.19631653 96.68503995 -86.5 98.375 C-80.36668763 96.14708739 -76.6397878 94.40339258 -73.5 88.375 C-73.190625 87.6325 -72.88125 86.89 -72.5625 86.125 C-70.94579045 83.46218427 -69.504797 83.18879919 -66.5 82.375 C-64.87684097 82.20993298 -63.2514597 82.06603481 -61.625 81.9375 C-51.60948729 81.00685501 -46.59329796 76.18285337 -39.5 69.375 C-38.51 69.705 -37.52 70.035 -36.5 70.375 C-36.99385066 74.65503902 -39.43445843 77.54937038 -42.5 80.375 C-48.8762046 84.92410504 -53.87852425 88.375 -61.8125 88.375 C-65.37649135 88.64406955 -66.94945718 88.83084646 -69.51953125 91.37109375 C-71.02059265 93.6537297 -72.3170008 95.91418106 -73.5 98.375 C-73.83 99.035 -74.16 99.695 -74.5 100.375 C-74.539992 102.37460012 -74.54346799 104.37547242 -74.5 106.375 C-75.82 106.375 -77.14 106.375 -78.5 106.375 C-79.16 108.025 -79.82 109.675 -80.5 111.375 C-81.2425 111.16875 -81.985 110.9625 -82.75 110.75 C-85.82330841 110.33091249 -86.92786866 110.75550989 -89.5 112.375 C-90.41058531 109.30177456 -90.58886184 106.57402639 -90.5 103.375 C-91.36625 104.365 -91.36625 104.365 -92.25 105.375 C-94.5 107.375 -94.5 107.375 -98.5 107.375 C-98.07655054 102.43475635 -95.93836253 100.76946854 -92.5 97.375 C-90.83833584 95.2885696 -89.21902162 93.19824974 -87.625 91.0625 C-86.74371604 89.90768607 -85.86090278 88.75403762 -84.9765625 87.6015625 C-84.55149414 87.04758789 -84.12642578 86.49361328 -83.68847656 85.92285156 C-83.10018066 85.15666504 -83.10018066 85.15666504 -82.5 84.375 C-81.88898438 83.57835937 -81.27796875 82.78171875 -80.6484375 81.9609375 C-76.32950065 76.65949369 -71.42904536 73.67598691 -65.5 70.375 C-56.56812665 65.12530622 -50.63191932 58.55845141 -44.83764648 50.05004883 C-40.5661869 43.8109209 -36.68805027 38.45036276 -29.5 35.375 C-27.73122911 35.05103015 -25.96030867 34.73859196 -24.1875 34.4375 C-21.60962945 33.93761197 -21.60962945 33.93761197 -19.5 32.375 C-17.86914534 28.65612388 -16.97316866 25.10899442 -16.21875 21.13671875 C-15.5 17.375 -15.5 17.375 -14.375 14.1171875 C-13.25157946 10.59646776 -13.97313587 7.99719088 -14.5 4.375 C-13.6875 1.5 -13.6875 1.5 -12.5 -0.625 C-8.80035974 -2.47482013 -3.92532072 -0.98133018 0 0 Z M-9.5 4.375 C-9.03563783 9.36689336 -7.65300977 11.57284116 -4.5 15.375 C-4.025625 16.550625 -3.55125 17.72625 -3.0625 18.9375 C-1.10142414 23.25186689 1.31053559 25.2802678 5.5 27.375 C12.80738798 27.96898428 20.79217249 27.81674007 27.0625 23.6875 C29.12040534 20.37695663 29.04592458 18.19647209 28.5 14.375 C26.28136971 11.46782927 24.98055071 10.53518357 21.5 9.375 C21.17 10.365 20.84 11.355 20.5 12.375 C19.241875 12.41625 17.98375 12.4575 16.6875 12.5 C15.97980469 12.52320312 15.27210938 12.54640625 14.54296875 12.5703125 C12.5 12.375 12.5 12.375 9.5 10.375 C9.17 9.385 8.84 8.395 8.5 7.375 C9.49 7.705 10.48 8.035 11.5 8.375 C12.89439664 8.44165376 14.29169875 8.46038199 15.6875 8.4375 C16.945625 8.416875 18.20375 8.39625 19.5 8.375 C19.17 7.715 18.84 7.055 18.5 6.375 C13.20815563 4.61105188 7.50841652 5.00983336 2.0625 6 C-0.5 6.375 -0.5 6.375 -3.5 4.375 C-6.62521833 4.20800768 -6.62521833 4.20800768 -9.5 4.375 Z M141.5 23.375 C141.5 24.035 141.5 24.695 141.5 25.375 C142.16 25.045 142.82 24.715 143.5 24.375 C142.84 24.045 142.18 23.715 141.5 23.375 Z M-80.5 101.375 C-79.5 104.375 -79.5 104.375 -79.5 104.375 Z M-84.5 104.375 C-83.5 107.375 -83.5 107.375 -83.5 107.375 Z " fill="#F9F5ED" transform="translate(208.5,114.625)"/>
<path d="M0 0 C0.99 0 1.98 0 3 0 C2.1801643 4.09917849 0.25796303 7.21322556 -1.84375 10.78125 C-4.20252373 15.30754554 -4.53618221 19.95013844 -4 25 C-1.8140097 30.98271029 1.6437416 33.65356663 7.0625 36.75 C9.90459795 38.92692609 10.46112861 39.56598659 11.8125 42.625 C15.52567435 50.914161 23.0793189 57.23529752 29.56640625 63.40625 C31 65 31 65 31 67 C31.85851562 66.67773438 32.71703125 66.35546875 33.6015625 66.0234375 C40.38744108 63.97987407 48.16169291 63.71973492 54.6875 66.75 C57.62994821 68.3377879 58.69444 69.9386869 60 73 C58.6078125 72.505 58.6078125 72.505 57.1875 72 C39.6484186 67.14951256 21.68038974 77.46103903 6.78417969 85.80029297 C3.38083733 87.75620865 -0.00159576 89.74291734 -3.375 91.75 C-4.98906738 92.70676636 -4.98906738 92.70676636 -6.63574219 93.68286133 C-11.65592626 96.72581984 -16.07935882 99.56541709 -20 104 C-23.33333333 107.33333333 -26.66666667 110.66666667 -30 114 C-31.25876953 115.26650391 -31.25876953 115.26650391 -32.54296875 116.55859375 C-39.59346972 123.56425847 -47.05794813 129.65810355 -55.03979492 135.55249023 C-58.99420328 138.4769738 -62.84992147 141.46887821 -66.625 144.625 C-72.25674369 149.29707436 -78.17360293 153.50079011 -84.15771484 157.703125 C-87.32453545 159.93240555 -90.47405036 162.18587265 -93.625 164.4375 C-94.20483643 164.85056396 -94.78467285 165.26362793 -95.38208008 165.68920898 C-98.28213576 167.7577473 -101.16186821 169.8471732 -104 172 C-98.95926291 171.6799532 -95.2117894 171.2755917 -90.75 168.875 C-85.65480587 166.35450503 -81.14065974 167.04243992 -75.625 167.73828125 C-74.325625 167.86783203 -74.325625 167.86783203 -73 168 C-71.26043342 166.26043342 -71.62809614 163.8063378 -71.4375 161.4375 C-71.35371094 160.42558594 -71.26992187 159.41367187 -71.18359375 158.37109375 C-71.12300781 157.58863281 -71.06242187 156.80617188 -71 156 C-70.01 155.67 -69.02 155.34 -68 155 C-66.09196604 158.23602559 -65.67638233 160.75936616 -65.625 164.5 C-65.59664062 165.4384375 -65.56828125 166.376875 -65.5390625 167.34375 C-66 170 -66 170 -67.52734375 172.3359375 C-70.95084342 174.6399041 -73.97632908 174.36332022 -77.9375 174.125 C-82.79006374 173.88481811 -86.50768825 173.972169 -91 176 C-95.38833414 176.93267047 -99.64349316 177.19192432 -104.125 177.25 C-105.92324219 177.28867187 -105.92324219 177.28867187 -107.7578125 177.328125 C-111.19943715 176.979816 -112.52503192 176.33952207 -115 174 C-114.93359375 171.73828125 -114.93359375 171.73828125 -114 169 C-111.66956592 167.49348713 -109.55728104 166.34062586 -107.0625 165.1875 C-101.35636848 162.35420763 -96.56866938 159.31382163 -91.69140625 155.17578125 C-88.42190711 152.5326593 -84.98805787 150.21722854 -81.5 147.875 C-61.8590178 134.57517568 -39.4477899 118.65807728 -24.625 99.875 C-15.10499157 88.67227822 0.72725912 82.14630766 13.43652344 75.37646484 C17.31496937 73.29392406 21.15962696 71.1517609 25 69 C21.13493106 64.23646961 21.13493106 64.23646961 16.5625 60.1875 C11.55354898 55.9115662 7.97274217 50.05949305 5.0625 44.1875 C2.70933382 40.55078864 0.57806099 39.27549205 -3.1015625 37.17578125 C-6.73165886 34.92751169 -8.51593954 32.06493301 -10.25 28.25 C-12.03052427 20.53439483 -11.25573192 15.22577813 -7.44140625 8.23828125 C-5.57216411 5.33563695 -3.61150359 3.24879476 -1 1 C-0.67 0.67 -0.34 0.34 0 0 Z " fill="#F9F5ED" transform="translate(185,166)"/>
<path d="M0 0 C3.61257479 0.58757302 6.45880838 1.56002882 9.6953125 3.2578125 C10.57082764 3.71534912 11.44634277 4.17288574 12.34838867 4.64428711 C13.72281128 5.37723999 13.72281128 5.37723999 15.125 6.125 C16.06770752 6.62201416 17.01041504 7.11902832 17.98168945 7.63110352 C22.85130038 10.22466864 27.58420472 12.89733808 32.1875 15.9375 C39.10296832 20.45460217 45.68350812 22.8042999 53.76586914 24.34008789 C66.85202296 26.82870781 76.90679171 31.16145871 87.26171875 39.8046875 C96.94405852 47.56713394 105.06736647 53.23738163 117.79296875 52.64453125 C121 53 121 53 123.85546875 55.1484375 C126.19711658 58.26210401 126.65531619 60.00006648 127.125 63.8125 C128.2592397 69.23164521 129.85057837 71.18192659 134.4375 74.25 C135.41203125 74.87261719 136.3865625 75.49523437 137.390625 76.13671875 C141.12305085 78.80193901 142.83905467 81.6024798 144 86 C144.67867036 91.91412742 144.67867036 91.91412742 142.75 95 C141 96 141 96 139.06274414 95.76611328 C136.5742557 94.84187648 135.81010543 93.85950384 134.24609375 91.7421875 C131.01588497 87.77448352 127.5153667 85.55471862 123.0625 83.125 C121.54500325 82.26793494 120.02808683 81.40984164 118.51171875 80.55078125 C117.7542334 80.12619629 116.99674805 79.70161133 116.21630859 79.26416016 C113.50933666 77.72013056 110.86309151 76.08958519 108.21459961 74.44799805 C100.41770025 69.63533993 92.40780482 65.62941414 84 62 C82.35257813 61.28263672 82.35257813 61.28263672 80.671875 60.55078125 C76.81129214 58.94220506 72.92036835 57.45523294 69 56 C68.09362793 55.65678711 67.18725586 55.31357422 66.25341797 54.95996094 C51.03727631 49.27274579 36.12691897 45.52930544 20.12573242 43.02734375 C-8.33118333 38.57059905 -8.33118333 38.57059905 -20 31 C-20.66 30.01 -21.32 29.02 -22 28 C-17.10398076 26.36156836 -13.38766459 27.96365262 -8.75 29.625 C-1.18594811 32.1720258 6.3519926 34.05281177 14.1875 35.5625 C15.24001953 35.76657471 16.29253906 35.97064941 17.37695312 36.1809082 C21.62087013 36.99454062 25.86747513 37.79211916 30.11767578 38.57226562 C43.86854253 41.11491994 56.52374171 44.58666466 69.44433594 49.95166016 C72.02494831 51.01023386 74.62068141 52.01712621 77.2265625 53.01171875 C91.56626899 58.51732277 104.49937193 64.96297096 116.99609375 73.90234375 C119.72884315 75.8106486 122.49062875 77.52126442 125.375 79.1875 C129.70914421 81.71575079 133.29720167 84.61918414 137 88 C136.72441636 84.69299629 136.36709699 83.33470608 133.875 81.0625 C132.35991261 79.97558948 130.83570983 78.89745647 129.25390625 77.91015625 C122.69081453 73.26659243 121.65094598 66.4856557 120 59 C119.26136719 59.05800781 118.52273438 59.11601562 117.76171875 59.17578125 C103.43315579 59.81301086 93.60103627 52.19836938 82.37109375 44.10546875 C73.42665432 37.68058972 65.63117919 34.02022303 54.875 31.6875 C41.10217159 28.6641962 30.17145476 22.53004171 18.328125 15.03125 C12.3773589 11.39932703 6.18295331 8.2154778 0 5 C0 3.35 0 1.7 0 0 Z " fill="#F9F5ED" transform="translate(271,241)"/>
<path d="M0 0 C3.81744966 2.69739933 3.81744966 2.69739933 5 5.0625 C5.43023798 8.93464182 5.31669086 10.58746371 3.125 13.875 C0.50325318 16.57385702 -0.23564612 17.03065192 -4 17.1875 C-7 17.0625 -7 17.0625 -9 16.0625 C-13.84085656 15.53139883 -17.86499836 15.57907338 -22.375 17.5 C-29.15770871 24.12121565 -29.43381978 31.90714255 -30.22070312 40.89624023 C-31.53606467 54.99078132 -36.61808205 66.04806955 -47.49609375 75.26953125 C-55.84606972 81.24868721 -64.13575218 83.26111822 -74.25 83.25 C-75.38127319 83.2487915 -75.38127319 83.2487915 -76.53540039 83.24755859 C-89.9625401 83.0999599 -89.9625401 83.0999599 -94 79.0625 C-94 77.7425 -94 76.4225 -94 75.0625 C-92.80375 75.206875 -91.6075 75.35125 -90.375 75.5 C-88.58379011 75.6918146 -86.79205001 75.8787 -85 76.0625 C-83.33517578 76.24039063 -83.33517578 76.24039063 -81.63671875 76.421875 C-69.09932216 77.57284911 -59.79196709 75.84646775 -49 69.0625 C-42.35733126 63.3896609 -39.0508618 55.37111962 -37 47.0625 C-36.81561098 44.64963791 -36.69190774 42.23147212 -36.625 39.8125 C-35.98040935 28.92966119 -33.27280821 20.46448629 -25 13.0625 C-18.0444242 8.22383857 -9.94384423 9.90703175 -2 11.0625 C-1.67 9.4125 -1.34 7.7625 -1 6.0625 C-5.27509857 2.15057728 -9.18487556 2.56956042 -14.7421875 2.71875 C-21.86336756 3.4701455 -26.3065292 6.94861416 -31.359375 11.79296875 C-36.8425839 19.3780744 -37.95341755 27.57611416 -39.0625 36.6875 C-40.51319422 48.36907263 -42.06814751 56.81642645 -51 65.0625 C-61.03400159 72.46543602 -70.70643966 74.13377731 -83 73.0625 C-89.87397706 71.60824531 -96.60551706 69.70774919 -102 65.0625 C-102.33 64.0725 -102.66 63.0825 -103 62.0625 C-98.12841112 62.45537007 -93.7725222 63.03566979 -89.125 64.5625 C-78.39937255 67.90598263 -68.68887678 67.70337509 -58.41796875 62.83984375 C-52.61793096 59.38675326 -49.51596096 55.33027207 -47 49.0625 C-46.1312175 44.93880812 -45.76312817 40.82282674 -45.4375 36.625 C-44.62842832 26.69439421 -43.04440899 17.30487589 -37 9.0625 C-36.34 9.0625 -35.68 9.0625 -35 9.0625 C-35 8.4025 -35 7.7425 -35 7.0625 C-34.34 7.0625 -33.68 7.0625 -33 7.0625 C-33 6.4025 -33 5.7425 -33 5.0625 C-22.82045585 -2.5668452 -11.44827915 -7.39066122 0 0 Z " fill="#F9F5ED" transform="translate(362,154.9375)"/>
<path d="M0 0 C3.3 0 6.6 0 10 0 C14.22573032 8.91422072 18.30242465 17.84977898 22 27 C22.50789063 25.97261719 23.01578125 24.94523437 23.5390625 23.88671875 C27.53479565 15.83294081 31.61006029 7.84868009 36 0 C39.3 0 42.6 0 46 0 C45 3 45 3 41 5 C41 14.9 41 24.8 41 35 C42.65 35.33 44.3 35.66 46 36 C45.505 36.99 45.505 36.99 45 38 C40.38 38 35.76 38 31 38 C30.67 37.34 30.34 36.68 30 36 C32.475 35.505 32.475 35.505 35 35 C34.67 27.08 34.34 19.16 34 11 C31.54518932 16.56251898 31.54518932 16.56251898 29.09472656 22.12695312 C26.86558971 27.16019354 24.49779814 32.09441447 22 37 C19 36 19 36 17.31640625 32.6484375 C16.72096666 31.22844061 16.13677613 29.80368695 15.5625 28.375 C13.36087186 23.00203785 10.98001004 17.99069814 8 13 C7.88395321 16.4372166 7.81280492 19.87393086 7.75 23.3125 C7.71648437 24.28896484 7.68296875 25.26542969 7.6484375 26.27148438 C7.63554687 27.20927734 7.62265625 28.14707031 7.609375 29.11328125 C7.58842773 29.97735596 7.56748047 30.84143066 7.54589844 31.73168945 C7.80099799 34.18667294 7.80099799 34.18667294 10.02441406 35.80541992 C11.0023291 36.39673706 11.0023291 36.39673706 12 37 C11 38 11 38 8.27734375 38.09765625 C7.17519531 38.08605469 6.07304687 38.07445312 4.9375 38.0625 C3.83277344 38.05347656 2.72804687 38.04445313 1.58984375 38.03515625 C0.30787109 38.01775391 0.30787109 38.01775391 -1 38 C0 35 0 35 1.53051758 33.72729492 C3.77169479 31.09291566 3.43733116 28.77023293 3.51171875 25.36328125 C3.54716797 24.06455078 3.58261719 22.76582031 3.61914062 21.42773438 C3.6422405 20.05599483 3.6650229 18.6842499 3.6875 17.3125 C3.72067542 15.92900393 3.75516531 14.54553871 3.79101562 13.16210938 C3.87363241 9.77482117 3.94274058 6.38779643 4 3 C2.68 2.67 1.36 2.34 0 2 C0 1.34 0 0.68 0 0 Z M7 10 C8 12 8 12 8 12 Z " fill="#F9F5EC" transform="translate(169,310)"/>
<path d="M0 0 C18.83141049 -0.57778191 18.83141049 -0.57778191 25 3 C27.77536295 6.02766868 28.00972497 7.44567674 27.9375 11.5625 C26.92530466 15.2738829 26.07324605 16.74026026 23 19 C22.01 19 21.02 19 20 19 C21.57482413 21.44338172 23.15927827 23.87950005 24.75 26.3125 C25.1934375 27.00279297 25.636875 27.69308594 26.09375 28.40429688 C28.39386923 31.90521365 30.34743326 34.77261701 34 37 C33 38 33 38 29.875 38.625 C25.43165133 37.90833086 24.97987109 37.33076474 22.3125 33.9375 C20.26549469 31.05163283 18.49978431 28.13863957 16.875 25 C16.25625 24.01 15.6375 23.02 15 22 C13.35 21.67 11.7 21.34 10 21 C10.33 25.62 10.66 30.24 11 35 C12.32 35.33 13.64 35.66 15 36 C15 36.66 15 37.32 15 38 C9.72 38 4.44 38 -1 38 C-1 37.34 -1 36.68 -1 36 C1.475 35.505 1.475 35.505 4 35 C3.93123657 30.62117544 3.84332917 26.24328479 3.73754883 21.86523438 C3.70426537 20.37543428 3.67624403 18.88550705 3.65356445 17.39550781 C3.62007929 15.25530748 3.56777211 13.11627581 3.51171875 10.9765625 C3.48553467 9.68830566 3.45935059 8.40004883 3.43237305 7.07275391 C3.28968994 6.05874512 3.14700684 5.04473633 3 4 C2.01 3.34 1.02 2.68 0 2 C0 1.34 0 0.68 0 0 Z M11 3 C9.63467451 4.13701597 9.63467451 4.13701597 9.90234375 7.16015625 C9.91394531 8.44792969 9.92554688 9.73570312 9.9375 11.0625 C9.94652344 12.35285156 9.95554687 13.64320313 9.96484375 14.97265625 C9.97644531 15.97167969 9.98804688 16.97070312 10 18 C15.29307048 18.14933914 15.29307048 18.14933914 20 16 C21.50934217 12.98131566 21.17510672 10.32702771 21 7 C19.39402582 3.88986553 19.39402582 3.88986553 17.08984375 3.453125 C15.06328901 3.2618712 13.03146886 3.12898215 11 3 Z " fill="#F8F4EB" transform="translate(284,310)"/>
<path d="M0 0 C2.85475306 -0.08156437 5.70713565 -0.14076372 8.5625 -0.1875 C9.36236328 -0.21263672 10.16222656 -0.23777344 10.98632812 -0.26367188 C17.26127048 -0.3405079 21.59904725 0.80583693 26.9375 4.25 C28.76882526 7.26630042 28.47257466 9.57383373 28 13 C25.5 15.9375 25.5 15.9375 23 18 C23.78375 18.433125 24.5675 18.86625 25.375 19.3125 C28 21 28 21 30 24 C30.39898762 27.09215405 30.63009684 29.04027907 30 32 C26.1513425 36.78481743 22.0703875 37.90895062 16.1015625 38.796875 C10.68906566 39.15134583 5.37576646 38.63244311 0 38 C0 37.34 0 36.68 0 36 C1.98 35.505 1.98 35.505 4 35 C4 24.77 4 14.54 4 4 C2.68 3.34 1.36 2.68 0 2 C0 1.34 0 0.68 0 0 Z M10 4 C9.92741054 6.18639453 9.91626217 8.37500389 9.9375 10.5625 C9.94652344 11.76003906 9.95554687 12.95757812 9.96484375 14.19140625 C9.97644531 15.11824219 9.98804688 16.04507812 10 17 C15.57452814 17.51078489 15.57452814 17.51078489 20.5 15.375 C22.44280469 12.29889257 22.52224493 10.58110811 22 7 C21.16666667 4.5 21.16666667 4.5 19 3 C14.15422019 2.21179763 14.15422019 2.21179763 10 4 Z M10 20 C9.97314905 22.47923801 9.95323453 24.9581884 9.9375 27.4375 C9.92912109 28.14455078 9.92074219 28.85160156 9.91210938 29.58007812 C9.90346412 31.38693559 9.94779989 33.19387603 10 35 C11.14913969 36.36607015 11.14913969 36.36607015 14.25 36.25 C18.17419143 35.98838724 19.91686163 35.35769405 23 33 C24.42662219 30.14675563 24.31033868 28.16545451 24 25 C22.79497184 21.95139887 22.79497184 21.95139887 20 20 C16.62636739 19.58226179 13.3808573 19.7096592 10 20 Z " fill="#FBF8F0" transform="translate(333,310)"/>
<path d="M0 0 C5.61 0 11.22 0 17 0 C16.67 0.99 16.34 1.98 16 3 C13.9375 3.6875 13.9375 3.6875 12 4 C11.91307926 8.27070558 11.85963485 12.54118458 11.8125 16.8125 C11.78736328 18.02744141 11.76222656 19.24238281 11.73632812 20.49414062 C11.72666016 21.65751953 11.71699219 22.82089844 11.70703125 24.01953125 C11.6913208 25.09307861 11.67561035 26.16662598 11.65942383 27.27270508 C11.77519071 30.00256523 11.77519071 30.00256523 13.33081055 31.8112793 C17.01804034 34.43715641 20.62992469 34.3013845 25 34 C27.92902303 33.04331967 27.92902303 33.04331967 30 31 C31.42373562 25.4819191 31.11232255 19.78177524 31.0625 14.125 C31.05798828 13.15046875 31.05347656 12.1759375 31.04882812 11.171875 C31.03710906 8.78118566 31.02070219 6.3906256 31 4 C29.68 3.34 28.36 2.68 27 2 C27 1.34 27 0.68 27 0 C31.29 0 35.58 0 40 0 C40 0.99 40 1.98 40 3 C39.01 3.33 38.02 3.66 37 4 C36.9498877 4.73114014 36.89977539 5.46228027 36.84814453 6.21557617 C36.61551306 9.5402017 36.37038666 12.86379259 36.125 16.1875 C36.04636719 17.33798828 35.96773438 18.48847656 35.88671875 19.67382812 C35.80292969 20.78564453 35.71914063 21.89746094 35.6328125 23.04296875 C35.55949707 24.06414795 35.48618164 25.08532715 35.41064453 26.13745117 C34.73571637 30.84228629 33.86802387 33.30180688 30.125 36.3125 C25.04163091 38.92345478 19.55272457 38.76349963 14 38 C9.3815437 35.81231017 7.27725347 33.50252221 5 29 C4.56762695 26.13745117 4.56762695 26.13745117 4.48828125 23.04296875 C4.45283203 21.93115234 4.41738281 20.81933594 4.38085938 19.67382812 C4.35830078 18.52333984 4.33574219 17.37285156 4.3125 16.1875 C4.26125977 14.43276367 4.26125977 14.43276367 4.20898438 12.64257812 C4.12667684 9.76181446 4.05746822 6.88134862 4 4 C2.68 3.34 1.36 2.68 0 2 C0 1.34 0 0.68 0 0 Z " fill="#F9F5EA" transform="translate(228,310)"/>
<path d="M0 0 C0.66 0.33 1.32 0.66 2 1 C2 1.99 2 2.98 2 4 C3.64333504 5.03789581 5.31243867 6.03567924 7 7 C9.12064107 10.18096161 9.55861093 12.19687658 9.42578125 16 C8.82377953 18.82775121 7.36316206 20.40771969 5.015625 22.03125 C-3.23000246 25.99426475 -12.18481624 25.03708044 -21 24 C-21 23.67 -21 23.34 -21 23 C-17.7 23 -14.4 23 -11 23 C-10.67 22.34 -10.34 21.68 -10 21 C-8.9275 21.04125 -7.855 21.0825 -6.75 21.125 C-3.34287835 21.01142928 -1.73773233 20.89535315 1 19 C2.40457737 16.19084526 2.24895157 14.11189466 2 11 C0.88548965 8.76720415 0.88548965 8.76720415 -1 7 C-3.49407252 6.3049261 -3.49407252 6.3049261 -6.1875 6.25 C-7.08855469 6.19328125 -7.98960937 6.1365625 -8.91796875 6.078125 C-9.60503906 6.05234375 -10.29210937 6.0265625 -11 6 C-11 5.67 -11 5.34 -11 5 C-6.545 4.505 -6.545 4.505 -2 4 C-2.33 3.34 -2.66 2.68 -3 2 C-2.01 1.34 -1.02 0.68 0 0 Z " fill="#F6F2E7" transform="translate(354,324)"/>
<path d="M0 0 C0.66 0 1.32 0 2 0 C3.27861615 2.55723229 3.11336609 4.36737102 3.09765625 7.2265625 C3.09282227 8.7734375 3.09282227 8.7734375 3.08789062 10.3515625 C3.07951172 11.43179687 3.07113281 12.51203125 3.0625 13.625 C3.05798828 14.71296875 3.05347656 15.8009375 3.04882812 16.921875 C3.03701776 19.61463789 3.02054778 22.30729188 3 25 C2.34 25 1.68 25 1 25 C1 25.66 1 26.32 1 27 C0.34 27 -0.32 27 -1 27 C-1.33 18.75 -1.66 10.5 -2 2 C-1.34 2 -0.68 2 0 2 C0 1.34 0 0.68 0 0 Z " fill="#FBFCF8" transform="translate(235,311)"/>
<path d="M0 0 C1.65 0.33 3.3 0.66 5 1 C4.68914673 4.02101088 4.37636766 7.04180204 4.0625 10.0625 C3.97548828 10.91005859 3.88847656 11.75761719 3.79882812 12.63085938 C3.29757987 17.43912966 2.71999467 22.21949483 2 27 C1.67 27 1.34 27 1 27 C1 21.72 1 16.44 1 11 C0.01 11 -0.98 11 -2 11 C-1.85892253 9.54119891 -1.71197585 8.08296449 -1.5625 6.625 C-1.48128906 5.81289062 -1.40007812 5.00078125 -1.31640625 4.1640625 C-1 2 -1 2 0 0 Z " fill="#F4F1E5" transform="translate(320,173)"/>
<path d="M0 0 C0.33 0.66 0.66 1.32 1 2 C3.01669827 3.13350534 3.01669827 3.13350534 5 4 C5 4.66 5 5.32 5 6 C3.68 6 2.36 6 1 6 C1 6.99 1 7.98 1 9 C4.63 9 8.26 9 12 9 C12 9.33 12 9.66 12 10 C9.75059705 10.08119503 7.50035129 10.13927819 5.25 10.1875 C3.37054688 10.23970703 3.37054688 10.23970703 1.453125 10.29296875 C-2.14109357 9.98802939 -3.44725126 9.45605371 -6 7 C-5.6875 4.625 -5.6875 4.625 -5 2 C-2 0 -2 0 0 0 Z " fill="#F4F0E7" transform="translate(76,333)"/>
<path d="M0 0 C5.61 0 11.22 0 17 0 C16.67 0.99 16.34 1.98 16 3 C14.68 3.33 13.36 3.66 12 4 C11.67 11.59 11.34 19.18 11 27 C10.67 27 10.34 27 10 27 C9.67 18.42 9.34 9.84 9 1 C8.34 1 7.68 1 7 1 C7 1.66 7 2.32 7 3 C4 4 4 4 1.8125 3.0625 C1.214375 2.711875 0.61625 2.36125 0 2 C0 1.34 0 0.68 0 0 Z " fill="#F4EDDE" transform="translate(228,310)"/>
<path d="M0 0 C1.32 0.33 2.64 0.66 4 1 C3.01 3.31 2.02 5.62 1 8 C1.99 7.67 2.98 7.34 4 7 C4 7.66 4 8.32 4 9 C4.99 9.33 5.98 9.66 7 10 C5.35 11.98 3.7 13.96 2 16 C-0.86724686 15.42655063 -1.8614515 15.1385485 -4 13 C-4.1953125 10.3984375 -4.1953125 10.3984375 -4.125 7.375 C-4.10695312 6.37210938 -4.08890625 5.36921875 -4.0703125 4.3359375 C-4.04710937 3.56507813 -4.02390625 2.79421875 -4 2 C-3.01 3.485 -3.01 3.485 -2 5 C-2.33 5.99 -2.66 6.98 -3 8 C-2.34 8.33 -1.68 8.66 -1 9 C-1 9.66 -1 10.32 -1 11 C-0.01 11.33 0.98 11.66 2 12 C2 11.34 2 10.68 2 10 C1.34 9.67 0.68 9.34 0 9 C0 6.03 0 3.06 0 0 Z " fill="#F7F2E6" transform="translate(220,147)"/>
<path d="M0 0 C5.94 0 11.88 0 18 0 C17.67 1.32 17.34 2.64 17 4 C11.72 4 6.44 4 1 4 C0.67 2.68 0.34 1.36 0 0 Z " fill="#FCFCF9" transform="translate(252,152)"/>
<path d="M0 0 C0.66 0.66 1.32 1.32 2 2 C1.58273518 4.98169669 0.38151963 7.59662304 -0.84765625 10.328125 C-1.20537109 11.12734375 -1.56308594 11.9265625 -1.93164062 12.75 C-2.30482422 13.575 -2.67800781 14.4 -3.0625 15.25 C-3.62807617 16.51070313 -3.62807617 16.51070313 -4.20507812 17.796875 C-5.13379667 19.86591884 -6.06552559 21.93355098 -7 24 C-7.99 23.67 -8.98 23.34 -10 23 C-8.41980408 17.7936703 -6.22115005 13.01626689 -3.875 8.125 C-3.50246094 7.34125 -3.12992188 6.5575 -2.74609375 5.75 C-1.83381003 3.83186501 -0.91733016 1.91572671 0 0 Z " fill="#F6F0DF" transform="translate(202,315)"/>
<path d="M0 0 C0.33 0 0.66 0 1 0 C1.33 1.65 1.66 3.3 2 5 C2.66 5 3.32 5 4 5 C4 3.35 4 1.7 4 0 C4.99 0 5.98 0 7 0 C7 2.31 7 4.62 7 7 C7.66 7 8.32 7 9 7 C9 5.35 9 3.7 9 2 C9.33 2 9.66 2 10 2 C10 3.98 10 5.96 10 8 C6.2319266 9.03946852 2.92250084 9 -1 9 C-0.67 6.03 -0.34 3.06 0 0 Z M5 2 C6 5 6 5 6 5 Z " fill="#F3EDD9" transform="translate(119,217)"/>
<path d="M0 0 C4.67692308 1.47692308 4.67692308 1.47692308 6.3125 4.125 C6.539375 4.74375 6.76625 5.3625 7 6 C5.35 7.32 3.7 8.64 2 10 C1.01 9.34 0.02 8.68 -1 8 C-0.34 7.67 0.32 7.34 1 7 C0.34 6.67 -0.32 6.34 -1 6 C-1.75 4.0625 -1.75 4.0625 -2 2 C-1.34 1.34 -0.68 0.68 0 0 Z " fill="#F8EEE4" transform="translate(348,139)"/>
<path d="M0 0 C0.90492188 0.02320313 1.80984375 0.04640625 2.7421875 0.0703125 C4.10730469 0.09738281 4.10730469 0.09738281 5.5 0.125 C6.19867188 0.14820313 6.89734375 0.17140625 7.6171875 0.1953125 C7.6171875 0.8553125 7.6171875 1.5153125 7.6171875 2.1953125 C6.9571875 2.1953125 6.2971875 2.1953125 5.6171875 2.1953125 C5.2871875 3.1853125 4.9571875 4.1753125 4.6171875 5.1953125 C1.6471875 5.1953125 -1.3228125 5.1953125 -4.3828125 5.1953125 C-4.3828125 1.47090816 -3.81099956 0.31237701 0 0 Z " fill="#FCFBF6" transform="translate(330.3828125,141.8046875)"/>
<path d="M0 0 C4.29 0 8.58 0 13 0 C13 0.99 13 1.98 13 3 C11.68 3.33 10.36 3.66 9 4 C9 3.01 9 2.02 9 1 C7.68 1 6.36 1 5 1 C5.33 1.66 5.66 2.32 6 3 C6.07116382 5.37402501 6.08409085 7.75000677 6.0625 10.125 C6.05347656 11.40632813 6.04445313 12.68765625 6.03515625 14.0078125 C6.02355469 14.99523437 6.01195312 15.98265625 6 17 C5.67 17 5.34 17 5 17 C4.96132813 15.62714844 4.96132813 15.62714844 4.921875 14.2265625 C4.86515625 13.03804688 4.8084375 11.84953125 4.75 10.625 C4.70359375 9.44164062 4.6571875 8.25828125 4.609375 7.0390625 C4.34351201 3.88708247 4.34351201 3.88708247 1.953125 2.5859375 C1.30859375 2.39257812 0.6640625 2.19921875 0 2 C0 1.34 0 0.68 0 0 Z " fill="#F5ECE1" transform="translate(255,310)"/>
<path d="M0 0 C2.29160319 -0.02692484 4.58329546 -0.04636124 6.875 -0.0625 C8.15117187 -0.07410156 9.42734375 -0.08570313 10.7421875 -0.09765625 C14 0 14 0 16 1 C16 1.66 16 2.32 16 3 C11.05 3 6.1 3 1 3 C0.67 2.01 0.34 1.02 0 0 Z " fill="#FAF9F4" transform="translate(224,232)"/>
<path d="M0 0 C-2.31 1.32 -4.62 2.64 -7 4 C-7 5.32 -7 6.64 -7 8 C-9.64 8.66 -12.28 9.32 -15 10 C-14.67 9.34 -14.34 8.68 -14 8 C-13.01 8 -12.02 8 -11 8 C-11 7.34 -11 6.68 -11 6 C-12.65 5.67 -14.3 5.34 -16 5 C-13.13879225 3.09252817 -10.64745007 1.99646294 -7.4375 0.8125 C-6.46683594 0.44769531 -5.49617188 0.08289063 -4.49609375 -0.29296875 C-2 -1 -2 -1 0 0 Z " fill="#F7EFE5" transform="translate(316,137)"/>
<path d="M0 0 C0.33 0.66 0.66 1.32 1 2 C3.32156597 2.40729228 5.6568787 2.74438677 8 3 C8 4.32 8 5.64 8 7 C7.67 7.33 7.34 7.66 7 8 C3.5 7.6875 3.5 7.6875 0 7 C-0.33 6.34 -0.66 5.68 -1 5 C-0.01 4.67 0.98 4.34 2 4 C1.01 3.67 0.02 3.34 -1 3 C-0.67 2.01 -0.34 1.02 0 0 Z " fill="#F9F5EC" transform="translate(353,134)"/>
<path d="M0 0 C0.91007813 0.00902344 1.82015625 0.01804687 2.7578125 0.02734375 C3.45648438 0.03894531 4.15515625 0.05054688 4.875 0.0625 C4.875 1.0525 4.875 2.0425 4.875 3.0625 C3.875 4.0625 3.875 4.0625 1.58984375 4.16015625 C0.21505859 4.14275391 0.21505859 4.14275391 -1.1875 4.125 C-2.10660156 4.11597656 -3.02570313 4.10695313 -3.97265625 4.09765625 C-4.68292969 4.08605469 -5.39320313 4.07445312 -6.125 4.0625 C-6.455 3.0725 -6.785 2.0825 -7.125 1.0625 C-4.60024538 -0.19987731 -2.81299534 -0.03606404 0 0 Z " fill="#FDFCF8" transform="translate(204.125,270.9375)"/>
<path d="M0 0 C-0.99 1.485 -0.99 1.485 -2 3 C-2.33 2.67 -2.66 2.34 -3 2 C-5.67058851 1.85884839 -8.32432238 1.95752893 -11 2 C-11.33 6.29 -11.66 10.58 -12 15 C-12.33 15 -12.66 15 -13 15 C-13.33 10.05 -13.66 5.1 -14 0 C-3.375 -1.125 -3.375 -1.125 0 0 Z " fill="#F6F0E2" transform="translate(355,312)"/>
<path d="M0 0 C0.66 0.33 1.32 0.66 2 1 C2 1.99 2 2.98 2 4 C3.43750191 5.68798827 3.43750191 5.68798827 5 7 C4.01 7 3.02 7 2 7 C1.67 7.66 1.34 8.32 1 9 C0.34 8.34 -0.32 7.68 -1 7 C-3.43252661 6.53837573 -3.43252661 6.53837573 -6.125 6.375 C-7.03507812 6.30023438 -7.94515625 6.22546875 -8.8828125 6.1484375 C-9.58148438 6.09945313 -10.28015625 6.05046875 -11 6 C-11 5.67 -11 5.34 -11 5 C-6.545 4.505 -6.545 4.505 -2 4 C-2.33 3.34 -2.66 2.68 -3 2 C-2.01 1.34 -1.02 0.68 0 0 Z " fill="#F1E9DB" transform="translate(354,324)"/>
<path d="M0 0 C0.99 0.33 1.98 0.66 3 1 C2.67 2.32 2.34 3.64 2 5 C1.34 4.34 0.68 3.68 0 3 C-0.45890625 3.56589844 -0.9178125 4.13179687 -1.390625 4.71484375 C-2.00421875 5.44832031 -2.6178125 6.18179688 -3.25 6.9375 C-3.85328125 7.66839844 -4.4565625 8.39929688 -5.078125 9.15234375 C-7.10741134 11.10326334 -8.254407 11.61731779 -11 12 C-9.55928394 8.58301375 -7.76769435 6.68041215 -4.9375 4.3125 C-3.86822266 3.40951172 -3.86822266 3.40951172 -2.77734375 2.48828125 C-1.89755859 1.75158203 -1.89755859 1.75158203 -1 1 C-0.67 0.67 -0.34 0.34 0 0 Z " fill="#F6F0E4" transform="translate(169,184)"/>
<path d="M0 0 C0.66 0.33 1.32 0.66 2 1 C1.34 1.66 0.68 2.32 0 3 C0.33 3.66 0.66 4.32 1 5 C-4.625 9 -4.625 9 -8 9 C-6.4169423 4.7257442 -3.49431596 2.73468206 0 0 Z " fill="#F4EDDD" transform="translate(125,312)"/>
<path d="M0 0 C0.33 1.32 0.66 2.64 1 4 C-2.63 4 -6.26 4 -10 4 C-6.58908673 0.88145073 -4.68377325 -0.53528837 0 0 Z " fill="#FDFAFA" transform="translate(240,266)"/>
<path d="M0 0 C0.99 0.33 1.98 0.66 3 1 C3 2.98 3 4.96 3 7 C1.68 7 0.36 7 -1 7 C-1.33 5.02 -1.66 3.04 -2 1 C-1.34 0.67 -0.68 0.34 0 0 Z " fill="#F6EDDD" transform="translate(131,214)"/>
<path d="M0 0 C0.99 0 1.98 0 3 0 C2.34 1.32 1.68 2.64 1 4 C0.34 4 -0.32 4 -1 4 C-1 5.65 -1 7.3 -1 9 C-1.99 9.33 -2.98 9.66 -4 10 C-4 7.69 -4 5.38 -4 3 C-2.68 2.67 -1.36 2.34 0 2 C0 1.34 0 0.68 0 0 Z " fill="#FDFBF7" transform="translate(124,213)"/>
<path d="M0 0 C2.43929746 1.92576115 4.80090595 3.80090595 7 6 C6 7 6 7 2.4375 7.0625 C1.303125 7.041875 0.16875 7.02125 -1 7 C-1 4.37886292 -0.68707555 2.49064888 0 0 Z " fill="#F6F0E4" transform="translate(311,341)"/>
<path d="M0 0 C2.31 0 4.62 0 7 0 C6.67 1.32 6.34 2.64 6 4 C3.69 4.33 1.38 4.66 -1 5 C-0.67 3.35 -0.34 1.7 0 0 Z " fill="#FEFAF9" transform="translate(384,294)"/>
<path d="M0 0 C0.33 0 0.66 0 1 0 C1.05384521 2.29141286 1.09272087 4.58318188 1.125 6.875 C1.14820313 8.15117187 1.17140625 9.42734375 1.1953125 10.7421875 C1 14 1 14 -1 16 C-1.66 16 -2.32 16 -3 16 C-3 14.02 -3 12.04 -3 10 C-2.01 10.33 -1.02 10.66 0 11 C0 7.37 0 3.74 0 0 Z " fill="#F6F0DB" transform="translate(262,325)"/>
<path d="M0 0 C0 1.65 0 3.3 0 5 C-1.32 5.33 -2.64 5.66 -4 6 C-3.67 5.01 -3.34 4.02 -3 3 C-3.66 3 -4.32 3 -5 3 C-5.33 2.01 -5.66 1.02 -6 0 C-3.50907189 -1.24546405 -2.58919267 -0.7767578 0 0 Z " fill="#FAF9F3" transform="translate(195,205)"/>
<path d="M0 0 C3.3 0 6.6 0 10 0 C9.67 0.99 9.34 1.98 9 3 C6.4375 4.1875 6.4375 4.1875 4 5 C4 3.68 4 2.36 4 1 C2.35 1.66 0.7 2.32 -1 3 C-0.67 2.01 -0.34 1.02 0 0 Z " fill="#F6EEDD" transform="translate(205,310)"/>
<path d="M0 0 C0.66 0 1.32 0 2 0 C2 1.32 2 2.64 2 4 C2.99 4.66 3.98 5.32 5 6 C3.741875 6.04125 2.48375 6.0825 1.1875 6.125 C0.47980469 6.14820313 -0.22789062 6.17140625 -0.95703125 6.1953125 C-3 6 -3 6 -6 4 C-4.68 4 -3.36 4 -2 4 C-2 3.34 -2 2.68 -2 2 C-1.34 2 -0.68 2 0 2 C0 1.34 0 0.68 0 0 Z " fill="#F4EFE1" transform="translate(382,294)"/>
<path d="M0 0 C0.66 0.66 1.32 1.32 2 2 C1.56237193 5.17280351 0.22638495 8.05667611 -1 11 C-1.66 10.01 -2.32 9.02 -3 8 C-2.24451463 5.1524013 -1.31613642 2.63227284 0 0 Z " fill="#F1EAD4" transform="translate(202,315)"/>
<path d="M0 0 C1.98 0 3.96 0 6 0 C6 0.66 6 1.32 6 2 C5.34 2 4.68 2 4 2 C4 2.66 4 3.32 4 4 C2.35 4 0.7 4 -1 4 C-0.67 2.68 -0.34 1.36 0 0 Z " fill="#FDF8F6" transform="translate(376,294)"/>
<path d="M0 0 C2.31 0.33 4.62 0.66 7 1 C6.67 1.99 6.34 2.98 6 4 C4.02 4 2.04 4 0 4 C-0.33 3.34 -0.66 2.68 -1 2 C-0.67 1.34 -0.34 0.68 0 0 Z " fill="#FDFCF7" transform="translate(295,280)"/>
<path d="M0 0 C2.125 0.375 2.125 0.375 4 1 C3 4 3 4 0.9375 5.1875 C0.298125 5.455625 -0.34125 5.72375 -1 6 C-1.625 4.125 -1.625 4.125 -2 2 C-1.34 1.34 -0.68 0.68 0 0 Z " fill="#F1EADE" transform="translate(348,139)"/>
<path d="M0 0 C0.33 0.66 0.66 1.32 1 2 C3.32156597 2.40729228 5.6568787 2.74438677 8 3 C8 4.32 8 5.64 8 7 C7.67 6.34 7.34 5.68 7 5 C5.10466658 4.53476937 5.10466658 4.53476937 2.9375 4.375 C1.638125 4.25125 0.33875 4.1275 -1 4 C-0.67 2.68 -0.34 1.36 0 0 Z " fill="#EEE9D1" transform="translate(353,134)"/>
<path d="M0 0 C-0.99 0.33 -1.98 0.66 -3 1 C-3 1.99 -3 2.98 -3 4 C-4.65 3.67 -6.3 3.34 -8 3 C-6 0 -6 0 -4 -0.75 C-2 -1 -2 -1 0 0 Z " fill="#FDFCFA" transform="translate(252,263)"/>
<path d="M0 0 C4.29 0 8.58 0 13 0 C13 0.33 13 0.66 13 1 C12.07767578 1.09087891 12.07767578 1.09087891 11.13671875 1.18359375 C10.32847656 1.26738281 9.52023437 1.35117187 8.6875 1.4375 C7.88699219 1.51871094 7.08648437 1.59992188 6.26171875 1.68359375 C3.83912821 1.95265693 3.83912821 1.95265693 1 3 C0.67 2.01 0.34 1.02 0 0 Z " fill="#F5ECDD" transform="translate(333,310)"/>
<path d="M0 0 C2.0625 0.75 2.0625 0.75 4 2 C4.33 2.99 4.66 3.98 5 5 C2.69 4.34 0.38 3.68 -2 3 C-2 2.34 -2 1.68 -2 1 C-1.34 0.67 -0.68 0.34 0 0 Z " fill="#F8EBD8" transform="translate(240,234)"/>
<path d="M0 0 C0.66 0.33 1.32 0.66 2 1 C0.71937515 2.7074998 -0.61767557 4.37373596 -2 6 C-2.66 6 -3.32 6 -4 6 C-4 6.66 -4 7.32 -4 8 C-4.66 7.67 -5.32 7.34 -6 7 C-4.02 4.69 -2.04 2.38 0 0 Z " fill="#F0EDDE" transform="translate(133,191)"/>
<path d="M0 0 C0.66 0.33 1.32 0.66 2 1 C0.02 2.98 -1.96 4.96 -4 7 C-4.99 6.67 -5.98 6.34 -7 6 C-4.69 4.02 -2.38 2.04 0 0 Z " fill="#F5F1E4" transform="translate(126,297)"/>
<path d="M0 0 C0.99 0.33 1.98 0.66 3 1 C2.34 2.98 1.68 4.96 1 7 C0.34 6.34 -0.32 5.68 -1 5 C-0.625 2.375 -0.625 2.375 0 0 Z " fill="#FCFAF7" transform="translate(209,227)"/>
<path d="M0 0 C1.52299523 2.93720508 2.80100302 5.9168649 4 9 C3.01 8.67 2.02 8.34 1 8 C-0.25 5.0625 -0.25 5.0625 -1 2 C-0.67 1.34 -0.34 0.68 0 0 Z " fill="#F3E9D5" transform="translate(196,156)"/>
<path d="M0 0 C2 1 2 1 2 1 Z " fill="#FFFFD4" transform="translate(270,238)"/>
<path d="" fill="#FFFFFF" transform="translate(0,0)"/>
<path d="" fill="#FFFFFF" transform="translate(0,0)"/>
</svg>
