<svg width="20" height="20" viewBox="0 0 20 20" fill="none" xmlns="http://www.w3.org/2000/svg">
<path d="M13.5333 1.6665H6.46659C4.16659 1.6665 3.33325 2.49984 3.33325 4.8415V15.1582C3.33325 17.4998 4.16659 18.3332 6.46659 18.3332H13.5249C15.8333 18.3332 16.6666 17.4998 16.6666 15.1582V4.8415C16.6666 2.49984 15.8333 1.6665 13.5333 1.6665Z" fill="#DAC0A3"/>
<path d="M11.6666 5.2085H8.33325C7.99159 5.2085 7.70825 4.92516 7.70825 4.5835C7.70825 4.24183 7.99159 3.9585 8.33325 3.9585H11.6666C12.0083 3.9585 12.2916 4.24183 12.2916 4.5835C12.2916 4.92516 12.0083 5.2085 11.6666 5.2085Z" fill="#292D32"/>
<path d="M10.0001 16.0841C10.8055 16.0841 11.4584 15.4312 11.4584 14.6258C11.4584 13.8204 10.8055 13.1675 10.0001 13.1675C9.19467 13.1675 8.54175 13.8204 8.54175 14.6258C8.54175 15.4312 9.19467 16.0841 10.0001 16.0841Z" fill="#292D32"/>
</svg>
